<svg xmlns="http://www.w3.org/2000/svg" height="96" width="240">
    <path d="M238.621 83.744c.334-1.873.584-4.95-.408-8.194L240 68.912V81.74a26.89 26.89 0 01-1.379 2.004M240 27.085V14.258c-.37-.593-.825-1.27-1.377-1.998.333 1.874.581 4.948-.41 8.186zM0 14.258v12.827l1.787-6.639c-.99-3.238-.743-6.312-.41-8.186A27.248 27.248 0 000 14.257m224.75 78.221h-82.987a1.04 1.04 0 01-.907.55c-1.401 0-1.401-2.102 0-2.102.396 0 .73.228.908.552h82.987c5.952 0 10.233-3.42 12.933-6.576.34-1.317 1.13-5.208-.135-9.247l-.029-.093.025-.093L240 66.348V29.65l-2.48-9.217.03-.092c1.26-4.028.48-7.912.137-9.239-2.702-3.157-6.987-6.582-12.936-6.582h-82.988a1.04 1.04 0 01-.907.55c-1.342-.059-1.342-2.043 0-2.102.396 0 .73.228.908.552h82.987c7.638 0 12.669 5.273 15.249 8.938v-2.52c-2.437-2.645-8.163-7.926-16.333-9.941L16.323 0C8.153 2.016 2.435 7.292 0 9.937v2.521C2.581 8.793 7.61 3.52 15.25 3.52h82.986c.18-.324.513-.552.91-.552 1.36.042 1.36 2.061 0 2.103a1.04 1.04 0 01-.907-.551H15.25c-5.95 0-10.236 3.425-12.936 6.582-.343 1.327-1.123 5.211.136 9.239l.03.092-.026.093L0 29.65v36.697l2.481 9.216-.03.093c-1.26 4.03-.476 7.915-.136 9.24 2.7 3.158 6.986 6.583 12.936 6.583h82.985c.18-.324.513-.552.91-.552 1.328.071 1.328 2.03 0 2.101a1.04 1.04 0 01-.907-.549H15.25c-7.64 0-12.67-5.275-15.251-8.939v2.52c2.437 2.647 8.164 7.928 16.339 9.94l207.334-.002c8.171-2.014 13.892-7.29 16.327-9.936V83.54c-2.58 3.664-7.61 8.939-15.25 8.939M0 68.912v12.827c.372.593.825 1.272 1.377 2-.333-1.875-.58-4.95.41-8.19zm0 18.12v3.44S4.863 93.363 6.101 96h7.832C7.284 93.783 2.461 89.588 0 87.033M240 8.965v-3.44s-4.861-2.89-6.101-5.528h-7.828C232.717 2.216 237.539 6.41 240 8.965m-13.927 87.033h7.826c1.24-2.635 6.101-5.528 6.101-5.528v-3.438c-2.461 2.556-7.281 6.747-13.927 8.966M13.925 0H6.101C4.863 2.634 0 5.527 0 5.527v3.437C2.461 6.41 7.28 2.218 13.925 0" fill="#deddde"/>
</svg>
