<svg xmlns="http://www.w3.org/2000/svg" height="96" width="80.503">
    <path d="M10.476 10.9a14.786 14.786 0 014.555-.733h5.922a27.934 27.934 0 002.483 2.15c-3.1-.95-8.221-2.125-12.96-1.417m-9.317 7.002A25.756 25.756 0 000 19.558v12.36l1.565-5.823c-.989-3.243-.74-6.32-.406-8.193m77.114 8.086c1.259-4.033.479-7.91.136-9.236-1.18-1.38-2.656-2.805-4.452-3.98-6.485-3.137-15.988-.122-18.729.87a27.309 27.309 0 01-14.976 4.445c-5.4 0-10.557-1.56-14.98-4.445-2.748-.994-12.27-4.015-18.752-.856-1.784 1.169-3.25 2.585-4.425 3.958-.34 1.319-1.126 5.208.134 9.244l.031.094-.027.092L0 34.482v27.039l2.259 8.398-.031.092c-1.259 4.034-.479 7.912-.136 9.237 1.18 1.38 2.656 2.804 4.452 3.979 6.485 3.138 15.988.122 18.73-.87a27.309 27.309 0 0114.975-4.444c5.4 0 10.558 1.56 14.98 4.446 2.748.993 12.271 4.014 18.752.856 1.784-1.17 3.251-2.586 4.426-3.96.34-1.318 1.125-5.207-.135-9.244l-.03-.092.026-.092 2.235-8.308v-27.04l-2.26-8.397zM66.327 5.486h4.222l-.961-1.28H58.815c-.314-.011-.614-.048-.932-.048v.048H51.28c.466.4.904.832 1.323 1.28h11.14c8.27 1.829 14.135 7.07 16.759 9.86v2.446c-2.646-3.644-7.608-8.625-15.031-8.625H48.913a1.041 1.041 0 00-.906-.55c-1.34.058-1.341 2.04-.001 2.1.395 0 .727-.227.907-.55h9.147c-4.89 4.455-11.156 6.92-17.808 6.92-6.652 0-12.916-2.465-17.808-6.92h9.145c.18.323.512.55.907.55 1.316-.081 1.316-2.019 0-2.1a1.04 1.04 0 00-.907.55H15.031C7.607 9.167 2.643 14.15 0 17.794v-2.446c2.62-2.79 8.477-8.03 16.745-9.86h11.151c.419-.45.857-.88 1.321-1.282H22.62v-.048c-.317 0-.619.037-.932.048H10.913l-.962 1.282h4.22C7.465 7.603 2.577 11.76 0 14.392v-3.374s4.861-2.894 6.101-5.53h2.6l1.712-2.282h9.724C23.903 2.73 28.652 1.85 30.9.294c0 0 1.597-.97 1.597.614 0 .968-3.652 1.798-6.485 2.298h3.63a.744.744 0 01.522-.215c.158 0 .296.06.418.145A16.754 16.754 0 0140.25.07a16.77 16.77 0 019.671 3.066.723.723 0 01.419-.145c.204 0 .386.083.521.215h3.63c-2.833-.5-6.485-1.33-6.485-2.298 0-1.584 1.598-.614 1.598-.614C51.85 1.85 56.6 2.73 60.365 3.206h9.724l1.71 2.28H74.4c1.24 2.638 6.103 5.529 6.103 5.529v3.376c-2.58-2.633-7.471-6.79-14.176-8.905m-15.768-1.04a.7.7 0 01-.22.045.75.75 0 01-.75-.75c0-.01.004-.011.004-.018a16.104 16.104 0 00-18.685-.001c0 .01.004.013.004.02a.75.75 0 01-.75.749.717.717 0 01-.22-.044c-.4.328-.78.676-1.147 1.04h1.214c2.722-2.433 6.302-3.925 10.24-3.925 3.939 0 7.52 1.492 10.242 3.925h1.213a16.272 16.272 0 00-1.145-1.04m28.378 21.648l1.566 5.819V19.558a27.137 27.137 0 00-1.158-1.651c.332 1.875.582 4.95-.408 8.188M65.472 10.167h-5.927a27.764 27.764 0 01-2.482 2.15c3.1-.947 8.221-2.122 12.962-1.417a14.817 14.817 0 00-4.553-.733m-.001 75.665c1.65 0 3.157-.284 4.555-.732-4.739.708-9.859-.467-12.96-1.417a27.76 27.76 0 012.482 2.149zm13.872-7.733c.447-.591.83-1.148 1.16-1.658v-12.36l-1.567 5.824c.99 3.243.74 6.319.407 8.194m1.16.108v2.445c-2.621 2.79-8.479 8.028-16.747 9.859h-11.15c-.419.452-.858.88-1.322 1.284h6.598v.046c.317 0 .62-.036.932-.046h10.774l.963-1.284h-4.219c6.704-2.115 11.592-6.271 14.171-8.904v3.376s-4.863 2.892-6.103 5.528h-2.6l-1.712 2.284h-9.724c-3.765.476-8.514 1.356-10.761 2.912 0 0-1.597.968-1.597-.615 0-.97 3.652-1.799 6.485-2.297h-3.63a.74.74 0 01-.522.213.734.734 0 01-.419-.144 16.775 16.775 0 01-19.339 0 .73.73 0 01-.418.144.742.742 0 01-.521-.213H26.01c2.833.498 6.485 1.328 6.485 2.297 0 1.583-1.597.615-1.597.615-2.247-1.556-6.996-2.436-10.761-2.912h-9.724l-1.71-2.282H6.102C4.862 87.876 0 84.985 0 84.985v-3.377c2.579 2.635 7.47 6.79 14.175 8.905H9.952l.962 1.282h10.773c.315.01.613.046.932.046v-.046h6.601a17.142 17.142 0 01-1.322-1.282h-11.14C8.488 88.685 2.623 83.443 0 80.653v-2.445c2.644 3.644 7.607 8.624 15.03 8.624h16.558c.18.324.512.552.907.552 1.342-.059 1.342-2.043 0-2.102a1.04 1.04 0 00-.907.55h-9.145c4.89-4.453 11.155-6.919 17.807-6.919 6.652 0 12.917 2.466 17.809 6.919h-9.147a1.041 1.041 0 00-.906-.55c-1.342.058-1.342 2.043-.001 2.102.395 0 .727-.228.907-.552h16.559c7.424 0 12.388-4.983 15.032-8.625M51.707 90.512h-1.215c-2.721 2.433-6.301 3.927-10.24 3.927-3.938 0-7.52-1.494-10.241-3.927h-1.213c.365.365.746.712 1.145 1.04.07-.021.141-.044.22-.044a.75.75 0 01.75.75s-.005.013-.005.018a16.095 16.095 0 009.344 2.988c3.479 0 6.698-1.112 9.342-2.987 0-.01-.004-.012-.004-.012 0-.421.336-.757.749-.757.079 0 .15.023.221.044.399-.328.78-.675 1.147-1.04M1.564 69.905L0 64.087v12.354c.328.507.71 1.064 1.156 1.652-.332-1.876-.581-4.95.408-8.188m19.392 15.927a27.763 27.763 0 012.483-2.15c-3.1.949-8.221 2.123-12.963 1.418 1.398.447 2.904.732 4.554.732z" fill="#deddde"/>
</svg>
