<svg xmlns="http://www.w3.org/2000/svg" height="72" width="72">
    <path d="M.47 66.744c1.52.472 5.466 2.216 5.466 4.59V72h60.126v-.667c0-2.366 3.948-4.116 5.468-4.589l.47-.145V0l-4.5.005-.193.343c-.038.075-.936 1.607-3.312 1.927a1.21 1.21 0 00-.968-.504c-.389 0-.721.19-.948.472-1.689-.216-3.602-.916-5.726-2.152L56.198 0H15.801l-.154.09c-2.124 1.237-4.038 1.937-5.727 2.153a1.21 1.21 0 00-.947-.472c-.402 0-.744.205-.969.504C5.628 1.955 4.732.423 4.694.353L4.506 0H0v66.599zm2.155-6.839a32.054 32.054 0 01-1.292-2.485V17.724c.859 6.148 1.292 11.701 1.292 16.567zm4.58 10.762c-.546-2.852-4.488-4.53-5.872-5.035v-5.268c1.69 3.027 4.999 7.952 9.664 10.303zm57.586 0h-3.788c4.664-2.351 7.974-7.276 9.663-10.303v5.268c-1.383.505-5.327 2.183-5.875 5.035m5.875-13.247a31.91 31.91 0 01-1.292 2.488V34.291c0-4.866.433-10.419 1.292-16.567zM3.748 1.333c.479.654 1.752 1.991 4.177 2.279.215.365.594.623 1.048.623.472 0 .868-.275 1.076-.664 1.838-.23 3.88-.96 6.111-2.238h39.681c2.23 1.278 4.272 2.008 6.11 2.238.207.389.604.664 1.076.664.454 0 .834-.258 1.047-.623 2.425-.288 3.699-1.625 4.177-2.279h2.415V13.33c-1.296 7.903-1.959 14.954-1.959 20.962v26.737c-2.453 3.956-7.03 9.639-13.084 9.639H16.377c-6.049 0-10.63-5.687-13.085-9.643V34.291c0-6.008-.663-13.059-1.959-20.962V1.333z" fill="#231f20"/>
</svg>
