<svg xmlns="http://www.w3.org/2000/svg" height="144" width="144">
    <path d="M140.88 90.137l-.002-30.913c.421-6.841 1.437-26.039 3.009-31.14l.113-.37-.328-.202a11.704 11.704 0 01-2.006-1.684c.324-1.844.741-3.587 1.274-5.124l.066-.185-1.352-15.07-.586-.181c-1.374-.427-5.217-2.141-5.292-4.352V0H8.224v.916c0 2.213-3.82 3.892-5.29 4.352l-.587.183L.995 20.519l.065.185c.533 1.536.948 3.272 1.272 5.112-.601.64-1.273 1.21-2.004 1.696L0 27.716l.113.368c1.57 5.095 2.586 24.26 3.007 31.11l.003 30.917c-.422 6.84-1.438 20.705-3.01 25.805l-.113.369.328.204c.023.012 1.008.635 2.007 1.683-.324 1.844-.74 3.585-1.275 5.124l-.065.186 1.352 15.068.586.182c1.471.46 5.291 6.565 5.291 4.352V144h127.552v-.916c0-2.214 3.82-3.892 5.292-4.352l.586-.182 1.352-15.068-.066-.186c-.532-1.535-.948-3.272-1.272-5.112.6-.64 1.273-1.21 2.004-1.695l.328-.205-.113-.368c-1.57-5.094-2.585-18.927-3.007-25.779m-2.089 33.925c.007.018.243.575.553 1.403.138 1.24.244 3.817-.725 6.653-1.607 4.699-5.536 8.136-11.385 10.048H16.725C4.161 138.078 4.3 128.392 4.644 125.498c.323-.87.577-1.473.593-1.517.484-2.063-.189-3.847-1.141-5.232 1.841-10.093.904-22.948.857-23.528l-.002-46.373c.049-.639.988-13.517-.859-23.615.948-1.397 1.615-3.2 1.119-5.296-.007-.017-.244-.576-.555-1.402-.137-1.239-.244-3.816.725-6.654C6.99 7.183 10.917 3.744 16.768 1.833h110.507c12.564 4.088 12.427 13.775 12.081 16.668-.322.871-.577 1.474-.593 1.518-.484 2.062.19 3.846 1.143 5.232-1.843 10.094-.906 22.948-.859 23.528l.003 46.374c-.05.637-.988 13.516.858 23.615-.946 1.397-1.613 3.2-1.117 5.294m4.035-95.913c-.932 3.295-1.658 9.418-2.178 15.248-.097-4.362-.032-10.713.819-16.352.55.511 1.05.887 1.359 1.104m-3.116-7.818c.046-.11.618-1.454 1.157-3.118l.276 3.079a32.797 32.797 0 00-.948 3.51c-.513-1.015-.784-2.193-.485-3.471m.226-13.514l.676 7.543c-.136.65-.318 1.327-.518 1.979a16.048 16.048 0 00-.846-4.672c-1.097-3.211-3.754-7.279-10.045-9.834h4.85c.682 2.807 4.367 4.428 5.883 4.984M9.948 1.833h4.843C5.72 5.515 4.065 12.42 3.929 16.408c-.208-.67-.4-1.373-.541-2.047l.676-7.544C5.58 6.261 9.267 4.64 9.948 1.833m-7.09 18.459l.275-3.079a35.38 35.38 0 001.131 3.035c.304 1.299.041 2.49-.467 3.517a32.434 32.434 0 00-.94-3.473m-.325 6.75c.85 5.63.917 11.977.82 16.353-.521-5.83-1.245-11.951-2.177-15.246.31-.217.81-.594 1.357-1.108M1.175 115.85c.932-3.294 1.657-9.416 2.177-15.246.097 4.361.032 10.713-.819 16.35a12.62 12.62 0 00-1.358-1.104m3.116 7.819c-.047.11-.619 1.453-1.158 3.117l-.276-3.077c.37-1.093.682-2.275.948-3.51.515 1.017.784 2.193.486 3.47m-.227 13.513l-.676-7.542c.136-.648.32-1.326.519-1.978a16.04 16.04 0 00.845 4.671c1.097 3.213 3.755 7.279 10.045 9.833H9.948c-.681-2.806-4.368-4.428-5.884-4.984m129.988 4.984h-4.842c9.069-3.68 10.725-10.586 10.862-14.574.207.672.399 1.373.54 2.046l-.676 7.544c-1.516.556-5.201 2.178-5.884 4.984m7.091-18.457l-.276 3.077a36.387 36.387 0 00-1.13-3.034c-.305-1.299-.042-2.49.466-3.518.249 1.175.563 2.335.94 3.475m.325-6.75c-.85-5.63-.917-11.977-.82-16.353.522 5.83 1.246 11.95 2.178 15.244-.31.218-.81.595-1.358 1.108" fill="#231f20"/>
</svg>
