<svg xmlns="http://www.w3.org/2000/svg" height="72" width="72">
    <path d="M72 3.996V2.792h-3.83V0h-1.667s-.663.96-2.442.96H7.94C6.16.96 5.497 0 5.497 0H3.831v2.792H0v1.204c1.576 0 1.663 2.583 1.663 2.583v57.239S1.576 66.401 0 66.401v1.204h3.831V72h1.666V2.07h61.006v67.858H5.499v2.07s.662-.96 2.441-.96h56.123c1.769 0 2.433.949 2.44.96h1.666v-4.394H72v-1.203c-1.576 0-1.663-2.583-1.663-2.583V6.58S70.424 3.996 72 3.996M3.83 63.818H2.664V7.577H3.83zm65.507 0H68.17V7.577h1.168z" fill="#231f20"/>
</svg>
