<svg xmlns="http://www.w3.org/2000/svg" height="72" width="72">
    <path d="M68.852 36.399V5.447l-.585-.183c-1.488-.465-7.613-4.336-5.35-4.43V0H9.26v.833C9.26 3.1 5.397 4.8 3.907 5.264l-.585.183v30.244C2.472 39.09-.845 53.099.202 60.579l.057.41.395.13c.036.012 1.14.385 2.668 1.057v4.379l.585.181c1.49.463 5.352 2.159 5.352 4.431V72h53.658v-.833c0-2.265 3.862-3.965 5.35-4.43l.585-.183v-4.452c1.433-.623 2.46-.971 2.493-.983l.395-.13.057-.41c.986-7.036-1.893-19.853-2.945-24.18" fill="#fff"/>
</svg>
