<svg xmlns="http://www.w3.org/2000/svg" height="144" width="144">
    <path d="M9.21 1.178c-.533 4.55-8.077 3.662-6.284 9.011-.712 5.415-1.283 10.723.488 15.96-4.105 2.02-.6 6.437-.998 9.927 2.224 24.277 2.852 48.868-.004 73.113.213 2.926-2.794 6.586.631 8.276-.027 4.074-1.851 8.683-.407 13.118.303 3.655-.288 7.35 3.157 9.414 2.523 2.789 2.072 1.75 5.394 3.003 41.119-.183 82.918.365 123.612-.273.652-4.472 8.048-3.585 6.277-8.916.71-5.415 1.281-10.722-.49-15.957 3.844-1.771.933-5.507 1-8.666-2.85-24.246-2.223-48.836-.002-73.112-.37-3.49 3.093-7.907-1-9.914 2.255-6.518.578-13.241.135-19.957-2.407-.919-5.575-2.312-5.94-5.205-41.8.118-84.049-.237-125.568.178z" fill="#fff"/>
</svg>
