<svg xmlns="http://www.w3.org/2000/svg" height="72" width="72">
    <path d="M65.317 0H6.682L0 6.684v58.633L6.683 72h58.633L72 65.317V6.684zm4.85 7.444v5.167c-.544-1.63-1.316-3.367-2.399-5.008v-.095h-.061c-1.54-2.303-3.71-4.392-6.76-5.675h3.61zM58.364 70.167H13.601c-3.485-.843-6.274-2.763-8.37-5.706V7.57c1.822-2.553 4.493-4.772 8.404-5.736h44.762c3.485.843 6.274 2.762 8.37 5.704v56.894c-1.821 2.553-4.493 4.772-8.404 5.736M1.833 15.639c.403-1.89 1.123-4.242 2.398-6.498v53.738c-.223-.396-.458-.772-.66-1.199-.876-1.845-1.41-3.7-1.738-5.252zM67.768 9.12c.223.396.459.772.66 1.198.876 1.846 1.411 3.701 1.739 5.253v40.788c-.404 1.89-1.124 4.243-2.399 6.497zM7.444 1.833h3.61C8 3.116 5.833 5.205 4.291 7.508H4.23v.095C3.148 9.244 2.376 10.98 1.833 12.61V7.444zm-5.61 62.724v-5.168c.542 1.628 1.314 3.367 2.397 5.007v.096h.061c1.541 2.301 3.71 4.392 6.761 5.675H7.444zm62.722 5.61h-3.609c3.05-1.283 5.22-3.374 6.76-5.675h.061v-.096c1.083-1.64 1.855-3.379 2.399-5.007v5.168z" fill="#231f20"/>
</svg>
