<svg xmlns="http://www.w3.org/2000/svg" height="72" width="72">
    <path d="M67.5.005l-.19.343c-.04.073-.938 1.607-3.314 1.925-.225-.297-.565-.504-.967-.504-.39 0-.721.192-.948.474-1.69-.216-3.604-.918-5.726-2.154L56.2 0H15.8l-.155.09C13.521 1.324 11.61 2.026 9.92 2.242a1.212 1.212 0 00-.947-.474c-.403 0-.743.207-.968.504C5.628 1.955 4.732.421 4.694.353L4.504 0H0v72l4.5-.005.19-.343c.04-.073.938-1.607 3.314-1.925.225.298.565.504.967.504.389 0 .721-.192.948-.474 1.69.216 3.602.918 5.726 2.154L15.8 72h40.4l.155-.09c2.122-1.235 4.036-1.937 5.726-2.153.224.282.558.474.947.474.401 0 .743-.206.968-.504 2.376.318 3.272 1.852 3.31 1.92l.189.353H72V0zM1.333 17.724c.858 6.147 1.292 17.432 1.292 22.299v-8.046c0 4.867-.434 16.152-1.292 22.299zm69.334 52.942h-2.414c-.48-.651-1.753-1.989-4.177-2.278-.215-.364-.595-.623-1.048-.623-.472 0-.87.275-1.076.664-1.839.23-3.88.96-6.11 2.238H16.158c-2.231-1.278-4.272-2.008-6.111-2.238a1.22 1.22 0 00-1.077-.664c-.454 0-.834.259-1.047.623-2.424.29-3.697 1.627-4.177 2.279H1.333V58.672c1.295-7.904 1.959-20.687 1.959-26.695v8.046c0-6.008-.664-18.791-1.959-26.695V1.333h2.414c.48.652 1.753 1.99 4.177 2.279.215.365.593.623 1.048.623.472 0 .87-.275 1.076-.664 1.839-.23 3.88-.96 6.11-2.238h39.683c2.231 1.278 4.272 2.008 6.111 2.238.207.389.604.664 1.077.664.452 0 .834-.258 1.047-.623 2.424-.29 3.697-1.627 4.177-2.279h2.414v11.995c-1.296 7.904-1.959 20.687-1.959 26.695v-8.046c0 6.008.663 18.791 1.959 26.695zm0-16.39c-.858-6.147-1.292-17.432-1.292-22.299v8.046c0-4.867.434-16.152 1.292-22.299z" fill="#231f20"/>
</svg>
