<svg xmlns="http://www.w3.org/2000/svg" height="72" width="72">
    <path d="M71.531 5.256c-1.521-.472-5.63-2.222-5.467-4.59V0H5.937v.667c0 2.366-3.948 4.116-5.468 4.589L0 5.401V72l4.5-.005.192-.343c.039-.074.936-1.606 3.312-1.925.225.297.565.503.968.503.39 0 .721-.191.948-.472 1.69.216 3.603.916 5.727 2.152l.154.09h40.398l.155-.09c2.124-1.236 4.037-1.936 5.726-2.152.226.281.559.472.947.472.403 0 .744-.206.97-.503 2.375.319 3.271 1.85 3.309 1.92l.189.353H72V5.401zm-2.156 6.839c.467.81.898 1.638 1.292 2.485v39.697c-.859-6.149-1.292-11.702-1.292-16.567zm-4.58-10.762c.547 2.852 4.488 4.53 5.872 5.035v5.268c-1.69-3.027-4.999-7.952-9.664-10.303zm-57.587 0h3.788C6.332 3.684 3.023 8.61 1.333 11.636V6.368c1.383-.505 5.327-2.183 5.875-5.035M1.333 14.58a31.91 31.91 0 011.292-2.488v25.617c0 4.866-.433 10.42-1.292 16.567zm66.919 56.087c-.478-.653-1.752-1.99-4.177-2.279-.215-.365-.593-.622-1.048-.622a1.22 1.22 0 00-1.076.664c-1.837.229-3.88.96-6.11 2.237H16.158c-2.231-1.277-4.272-2.008-6.111-2.237a1.22 1.22 0 00-1.076-.664c-.453 0-.833.257-1.047.622-2.425.288-3.698 1.626-4.177 2.279H1.333V58.672c1.296-7.904 1.959-14.954 1.959-20.962V10.972c2.453-3.956 7.03-9.639 13.084-9.639h39.247c6.05 0 10.63 5.687 13.085 9.643V37.71c0 6.008.663 13.058 1.959 20.962v11.995z" fill="#231f20"/>
</svg>
