<svg xmlns="http://www.w3.org/2000/svg" height="72" width="72">
    <path d="M4.83 2.793C4.557 4.847.606 2.637 2.523 5.525c.095 19.944.494 40.04-.168 59.942-1.107 2.28 4.975.565 2.475 5.533 5.391-2.646 12.27-.046 18.11-.963 14.26.273 28.645-.496 42.845.293 3.33 2.409-.824-6.575 4.385-3.726-2.275-5.682-.05-13.495-.832-19.786.371-14.023-.681-28.237.412-42.166.757-1.538-4.255-.665-2.977-3.529-5.732 2.476-12.64-.084-18.712.838-13.93-.281-27.99.51-41.858-.299C4.83 1.048 4.633.224 4.83 2.793z" fill="#fff"/>
</svg>
