<svg xmlns="http://www.w3.org/2000/svg" height="73.439" width="64.003">
    <path d="M63.215 20.03c-7.043-1.427-7.975-12.151-7.983-12.26l-.056-.683L32.003 0 8.827 7.087l-.056.684c-.008.108-.942 10.832-7.983 12.258L0 20.188v16.621l.03.251c.075.299 7.785 29.924 31.726 36.312l.247.067.244-.067c23.941-6.388 31.65-36.013 31.725-36.312l.03-16.872zm-1.166 16.645c-.542 2.006-8.166 28.668-30.046 34.69-21.883-6.022-29.507-32.684-30.05-34.69V21.803c6.755-1.972 8.36-10.634 8.691-13.18l21.359-6.531 21.354 6.53c.33 2.547 1.936 11.209 8.692 13.18zM51.341 10.797l-.064-.32-17.82-5.45c-.064-.776-.68-1.392-1.453-1.392-.776 0-1.392.614-1.456 1.392l-17.823 5.452-.064.32c-.517 2.604-2.2 8.678-6.94 11.832-.253-.207-.558-.35-.908-.35-.817 0-1.478.68-1.478 1.519 0 .645.393 1.19.945 1.408v11.055l.021.154c.762 2.639 7.835 25.448 26.236 31.98.044.802.675 1.439 1.467 1.439.799 0 1.443-.656 1.468-1.47 7.53-2.666 14.023-8.231 19.297-16.637 4.32-6.888 6.399-13.46 6.931-15.309l.02-11.21a1.51 1.51 0 00.95-1.41c0-.839-.663-1.519-1.48-1.519-.35 0-.658.143-.91.35-4.739-3.154-6.423-9.228-6.939-11.834M33.127 67.36c-.274-.334-.666-.56-1.123-.56-.46 0-.853.226-1.124.561-17.73-6.3-24.685-28.268-25.535-31.178V25.209c.555-.22.948-.762.948-1.409 0-.076-.032-.143-.044-.216 4.927-3.244 6.771-9.335 7.39-12.245l17.216-5.263c.273.355.674.596 1.149.596.472 0 .875-.241 1.145-.596l17.214 5.263c.618 2.909 2.464 9.001 7.389 12.246-.01.075-.043.139-.043.215 0 .647.394 1.19.948 1.408v10.976c-.849 2.91-7.805 24.877-25.53 31.175" fill="#231f20"/>
</svg>
