<svg xmlns="http://www.w3.org/2000/svg" height="72" width="72">
    <path d="M68.852 36.399V5.447l-.585-.183c-1.488-.465-7.613-4.336-5.35-4.43V0H9.26v.833C9.26 3.1 5.397 4.8 3.907 5.264l-.585.183v30.244C2.472 39.09-.845 53.099.202 60.579l.057.41.395.13c.036.012 1.14.385 2.668 1.057v4.379l.585.181c1.49.463 5.352 2.159 5.352 4.431V72h53.658v-.833c0-2.265 3.862-3.965 5.35-4.43l.585-.183v-4.452c1.433-.623 2.46-.971 2.493-.983l.395-.13.057-.41c.986-7.036-1.893-19.853-2.945-24.18M4.99 14.392a33.68 33.68 0 011.125-2.135v25.286c0 4.524-.383 9.653-1.125 15.288zm0 43.11c1.19-7.5 1.792-14.203 1.792-19.959V11.138c2.206-3.56 6.134-8.513 11.31-9.471h35.99c5.174.958 9.104 5.916 11.312 9.476v26.4c0 5.756.603 12.459 1.792 19.959v3.882c-3.605 1.702-8.6 4.77-9.465 8.95H14.28c-.853-4.114-5.7-7.15-9.291-8.867zM66.06 12.26c.53.927.907 1.676 1.125 2.132V52.83c-.742-5.635-1.125-10.764-1.125-15.288zm1.125-5.61v4.858c-1.694-2.973-4.829-7.51-9.18-9.842h3.34c.644 2.781 4.371 4.433 5.84 4.984M10.831 1.667h3.34c-4.353 2.332-7.488 6.869-9.182 9.842V6.651c1.47-.551 5.198-2.203 5.842-4.984m-9.36 58.324c-.562-4.924.718-12.716 1.851-18.23v18.954a36.15 36.15 0 00-1.85-.724m3.517 5.359v-2.387c3.19 1.593 7.084 4.145 7.924 7.37H10.83c-.644-2.78-4.372-4.433-5.842-4.983m62.196 0c-1.469.55-5.196 2.202-5.84 4.984h-2.258c.854-3.28 4.88-5.87 8.098-7.458zm3.343-5.359c-.364.13-.959.355-1.676.652V42.622c1.084 5.441 2.21 12.694 1.676 17.369" fill="#231f20"/>
</svg>
