<svg xmlns="http://www.w3.org/2000/svg" height="72" width="72">
    <path d="M72.023 44.177L72 43.551l-.624-.04c-.025-.002-2.085-.219-2.685-5.346V5.447l-.585-.183c-1.488-.465-7.613-4.336-5.35-4.43V0H9.27v.833C9.27 3.1 5.407 4.8 3.917 5.264l-.585.183v32.718C2.733 43.292.675 43.509.667 43.511H0v.666c0 6.194 1.417 11.082 3.332 14.862v7.516l.585.181c1.49.463 5.352 2.159 5.352 4.43V72h53.487v-.833c0-2.266 3.862-3.966 5.35-4.431l.585-.183v-7.514c1.915-3.78 3.332-8.668 3.332-14.862" fill="#fff"/>
</svg>
