<svg xmlns="http://www.w3.org/2000/svg" height="72" width="72">
    <path d="M72.023 44.177L72 43.551l-.624-.04c-.025-.002-2.085-.219-2.685-5.346V5.447l-.585-.183c-1.488-.465-7.613-4.336-5.35-4.43V0H9.27v.833C9.27 3.1 5.407 4.8 3.917 5.264l-.585.183v32.718C2.733 43.292.675 43.509.667 43.511H0v.666c0 6.194 1.417 11.082 3.332 14.862v7.516l.585.181c1.49.463 5.352 2.159 5.352 4.43V72h53.487v-.833c0-2.266 3.862-3.966 5.35-4.431l.585-.183v-7.514c1.915-3.78 3.332-8.668 3.332-14.862m-2.944-.724c.575.744 1.168 1.09 1.607 1.251-.059 4.33-.846 7.97-1.995 11.01V42.87c.123.207.25.406.388.584M4.999 14.391c.218-.456.594-1.207 1.125-2.134v25.286c0 4.524-.383 9.653-1.125 15.288zm0 43.11c1.189-7.5 1.792-14.202 1.792-19.958V11.137c2.206-3.558 6.134-8.512 11.31-9.47H53.92c5.174.958 9.104 5.916 11.312 9.476v26.4c0 5.756.603 12.458 1.792 19.958v1.823a26.301 26.301 0 01-4.252 5.716c-3.125 3.172-6.281 4.767-7.462 5.293H16.715c-1.735-.777-7.742-3.889-11.716-11.027zm62.025-4.67c-.742-5.635-1.125-10.764-1.125-15.288V12.26c.53.926.907 1.676 1.125 2.132zm0-46.18v4.858C65.33 8.536 62.195 4 57.842 1.667h3.342c.644 2.781 4.371 4.433 5.84 4.984M10.841 1.667h3.34C9.828 3.999 6.692 8.536 5 11.509V6.651c1.47-.551 5.198-2.203 5.842-4.984M1.337 44.704c.439-.161 1.032-.507 1.607-1.25.14-.187.27-.383.388-.585v12.852c-1.168-3.073-1.937-6.717-1.995-11.017M5 65.349v-3.456a27.407 27.407 0 003.349 4.131 27.705 27.705 0 005.49 4.31h-2.997C10.197 67.551 6.47 65.899 5 65.348m56.185 4.984h-3a27.49 27.49 0 008.84-8.44v3.456c-1.469.551-5.196 2.203-5.84 4.984" fill="#231f20"/>
</svg>
