<svg xmlns="http://www.w3.org/2000/svg" height="29.935" width="72.666">
    <path d="M39.659 8.108a2.437 2.437 0 01-3.451-.003c-.63-.628-.833-1.516-.63-2.321H10.184c.204.805 0 1.693-.63 2.321a2.437 2.437 0 01-3.451.003l-5.437 4.59v4.54l5.437 4.59a2.436 2.436 0 013.45.003 2.42 2.42 0 01.631 2.32h25.392c-.202-.806 0-1.694.63-2.32a2.436 2.436 0 013.452-.003l5.438-4.59v-4.54z" fill="#fff"/>
    <path d="M36.433 24.818H9.328l.21-.831a1.747 1.747 0 00-.454-1.684c-.675-.677-1.84-.673-2.51-.004l-.433.435L0 17.548v-5.16l6.141-5.185.434.433c.669.67 1.84.668 2.506-.001a1.75 1.75 0 00.458-1.687l-.211-.83h27.105l-.209.829a1.752 1.752 0 00.455 1.685c.673.678 1.838.67 2.508.004l.434-.433 6.143 5.185v5.16l-6.144 5.186-.433-.435c-.671-.672-1.839-.67-2.506.001a1.753 1.753 0 00-.457 1.688zm-25.508-1.334h23.91a3.043 3.043 0 01.904-2.126c1.021-1.024 2.73-1.18 3.912-.396l4.78-4.034v-3.92l-4.782-4.036c-1.178.788-2.888.634-3.913-.397a3.044 3.044 0 01-.901-2.124H10.929a3.05 3.05 0 01-.905 2.127c-1.017 1.025-2.728 1.18-3.91.394l-4.78 4.036v3.92l4.78 4.035c1.18-.787 2.89-.632 3.913.397.566.563.882 1.33.898 2.124" fill="#231f20"/>
    <path d="M71.916 18.208v-6.487L63.2.75H23.831l-8.717 10.972-.002 6.487 8.72 10.976h39.363z" fill="#fff"/>
    <path d="M63.557 29.935H23.472l-9.11-11.466.002-7.009L23.469 0h40.093l9.103 11.46.001 7.01zm-39.361-1.5h38.637l8.333-10.488-.001-5.964L62.838 1.5H24.193l-8.33 10.483v5.964z" fill="#231f20"/>
    <path d="M17.722 21.316l-.653-.461a10.107 10.107 0 001.847-5.844c0-2.128-.65-4.167-1.879-5.896l.652-.464a10.921 10.921 0 012.025 6.36c0 2.273-.688 4.453-1.992 6.305m51.578 0a10.895 10.895 0 01-1.99-6.305c0-2.296.699-4.495 2.024-6.36l.652.464a10.137 10.137 0 00-1.877 5.896c0 2.11.638 4.13 1.845 5.844z" fill="#231f20"/>
    <path d="M18.09 14.966a1.306 1.306 0 112.612 0 1.306 1.306 0 01-2.611 0" fill="#fff"/>
    <path d="M19.395 16.607a1.641 1.641 0 01-1.16-2.796c.31-.311.722-.483 1.16-.483.904 0 1.64.735 1.642 1.637 0 .906-.736 1.642-1.642 1.642m.006-2.612a.968.968 0 00-.978.97c0 .538.438.975.972.975a.976.976 0 00.975-.973.974.974 0 00-.97-.972" fill="#231f20"/>
    <path d="M68.932 14.966a1.306 1.306 0 10-2.611 0 1.306 1.306 0 002.611 0" fill="#fff"/>
    <path d="M67.627 16.607c-.905 0-1.64-.736-1.64-1.64a1.642 1.642 0 012.802-1.156 1.64 1.64 0 01-1.161 2.796m0-2.612a.974.974 0 00-.974.973c0 .535.437.972.973.972a.975.975 0 00.69-1.659.965.965 0 00-.69-.286" fill="#231f20"/>
    <path d="M69.02 14.252l-.658-.093c.015-.104.387-2.553 2.84-3.496l.239.621c-2.091.804-2.416 2.946-2.42 2.968m-.771-3.072l-5.226-6.66c-.025-.022-1.085-1.08-2.793.07l-.236.16L56.488.977l.487-.454 3.127 3.36c2.054-1.208 3.413.186 3.426.202l5.246 6.682zm2.953 8.092c-2.454-.943-2.826-3.392-2.84-3.496l.658-.093c.014.086.342 2.169 2.422 2.966zM56.976 29.411l-.486-.453 3.506-3.773.236.16c1.724 1.161 2.77.094 2.814.046l5.205-6.636.524.411-5.225 6.661c-.032.038-1.392 1.435-3.447.223zM18.065 14.252c-.014-.086-.342-2.169-2.42-2.968l.238-.62c2.454.942 2.826 3.391 2.84 3.495zm.771-3.072l-.524-.413 5.225-6.66c.032-.037 1.393-1.434 3.447-.224L30.11.523l.487.454L27.09 4.75l-.236-.16c-1.722-1.16-2.768-.092-2.813-.048zm-2.953 8.092l-.24-.623c2.092-.802 2.417-2.945 2.42-2.966l.66.093c-.015.104-.387 2.553-2.84 3.496M30.11 29.411l-3.128-3.361c-2.054 1.21-3.413-.184-3.426-.2l-5.246-6.684.524-.41 5.226 6.66c.022.02 1.085 1.08 2.793-.071l.236-.16 3.507 3.773z" fill="#231f20"/>
</svg>
