<svg xmlns="http://www.w3.org/2000/svg" height="29.935" width="72.666">
    <g clip-path="url(#clipPath885)" transform="matrix(1.33333 0 0 -1.33333 -281.76 191.48)">
        <path d="M241.064 137.528a1.83 1.83 0 00-2.588.002c-.473.471-.625 1.137-.473 1.742H218.96a1.82 1.82 0 00-.473-1.742 1.83 1.83 0 00-2.588-.002l-4.078-3.44v-3.408l4.078-3.44a1.828 1.828 0 002.588-.003 1.816 1.816 0 00.473-1.74h19.044c-.152.603 0 1.27.473 1.74a1.828 1.828 0 002.588.002l4.08 3.441v3.407z" fill="#fff"/>
        <path d="M238.645 124.997h-20.329l.158.623a1.31 1.31 0 01-.34 1.262c-.507.508-1.38.506-1.883.004l-.325-.327-4.606 3.89v3.87l4.606 3.89.325-.327c.502-.502 1.38-.5 1.88.002.332.33.46.802.343 1.265l-.158.623h20.33l-.158-.623a1.312 1.312 0 01.341-1.263c.505-.508 1.38-.504 1.881-.004l.326.326 4.607-3.889v-3.87l-4.608-3.89-.325.327c-.503.502-1.379.502-1.879-.002a1.314 1.314 0 01-.343-1.266zm-19.13 1h17.931c.01.596.244 1.164.678 1.594.766.77 2.048.886 2.934.297l3.585 3.025v2.941l-3.586 3.026c-.884-.59-2.166-.475-2.935.3a2.283 2.283 0 00-.676 1.592h-17.929a2.285 2.285 0 00-.679-1.595c-.763-.77-2.046-.887-2.933-.297l-3.585-3.026v-2.94l3.585-3.026c.885.591 2.168.472 2.935-.299a2.31 2.31 0 00.674-1.592" fill="#231f20"/>
    </g>
    <path d="M71.916 18.208v-6.487L63.2.75H23.831l-8.717 10.972-.002 6.487 8.72 10.976h39.363z" fill="#fff"/>
    <path d="M63.557 29.935H23.472l-9.11-11.464.002-7.01L23.469 0h40.093l9.103 11.461.001 7.01zm-39.361-1.5h38.637l8.333-10.487-.001-5.964L62.838 1.5H24.193l-8.33 10.484v5.964z" fill="#231f20"/>
    <path d="M17.722 21.317l-.653-.46a10.108 10.108 0 001.847-5.846c0-2.128-.65-4.166-1.879-5.896l.652-.464a10.924 10.924 0 012.025 6.36c0 2.273-.688 4.454-1.992 6.306m51.578 0a10.9 10.9 0 01-1.99-6.306c0-2.295.699-4.494 2.024-6.36l.652.464a10.137 10.137 0 00-1.877 5.896c0 2.11.638 4.13 1.845 5.845z" fill="#231f20"/>
    <path d="M18.965 11.205l-.782-.169c.026-.112.622-2.705 3.695-4.177C22.098 5.643 23.619.35 33.42.35v.8c-10.276 0-10.775 5.945-10.78 6.005l-.015.243-.221.096c-2.883 1.292-3.435 3.686-3.44 3.71m49.132.001c-.023-.096-.576-2.429-3.44-3.71l-.219-.096-.017-.24c-.019-.248-.55-6.008-10.78-6.008v-.8c9.801 0 11.323 5.292 11.543 6.508 3.073 1.472 3.669 4.065 3.694 4.177z" fill="#231f20"/>
    <path d="M68.548 14.969a.924.924 0 00-.92-.922.927.927 0 00-.925.922.924.924 0 101.845 0" fill="#fff"/>
    <path d="M67.627 16.226a1.257 1.257 0 110-2.513c.335 0 .65.133.887.37a1.255 1.255 0 01-.887 2.143m0-1.846a.594.594 0 00-.59.592.59.59 0 10.59-.592" fill="#231f20"/>
    <path d="M20.32 14.969a.924.924 0 00-.92-.922.927.927 0 00-.925.922.924.924 0 101.845 0" fill="#fff"/>
    <path d="M19.4 16.226a1.257 1.257 0 110-2.513c.334 0 .649.133.886.37a1.255 1.255 0 01-.887 2.143m0-1.846a.594.594 0 00-.59.592.59.59 0 10.59-.592M33.42 29.586c-9.801 0-11.322-5.292-11.542-6.508-3.074-1.47-3.67-4.066-3.695-4.178l.781-.172c.023.1.576 2.431 3.44 3.712l.219.1.017.24c.019.243.55 6.006 10.78 6.006zm20.22 0v-.8c10.276 0 10.775-5.948 10.779-6.007l.016-.24.221-.099c2.883-1.289 3.435-3.685 3.44-3.709l.782.17c-.026.111-.622 2.706-3.695 4.177-.22 1.216-1.741 6.508-11.543 6.508" fill="#231f20"/>
</svg>
