<svg xmlns="http://www.w3.org/2000/svg" height="29.935" width="72.666">
    <path d="M39.659 8.108a2.437 2.437 0 01-3.451-.003c-.63-.628-.833-1.516-.63-2.321H10.184c.204.805 0 1.693-.63 2.321a2.437 2.437 0 01-3.451.003l-5.437 4.59v4.54l5.437 4.59a2.436 2.436 0 013.45.003 2.42 2.42 0 01.631 2.32h25.392c-.202-.806 0-1.694.63-2.32a2.436 2.436 0 013.452-.003l5.438-4.59v-4.54z" fill="#fff"/>
    <path d="M36.433 24.817H9.328l.21-.83a1.747 1.747 0 00-.454-1.684c-.675-.678-1.84-.674-2.51-.004l-.433.434L0 17.548v-5.16l6.141-5.185.434.433c.669.67 1.84.668 2.506-.001a1.75 1.75 0 00.458-1.687l-.211-.83h27.105l-.209.829a1.752 1.752 0 00.455 1.685c.673.677 1.838.67 2.508.004l.434-.433 6.143 5.185v5.16l-6.144 5.185-.433-.434c-.671-.672-1.839-.67-2.506.001a1.753 1.753 0 00-.457 1.688zm-25.508-1.333h23.91a3.043 3.043 0 01.904-2.127c1.021-1.024 2.73-1.18 3.912-.396l4.78-4.033v-3.92l-4.782-4.036c-1.178.787-2.888.635-3.913-.397a3.044 3.044 0 01-.901-2.124H10.929a3.05 3.05 0 01-.905 2.126c-1.017 1.026-2.728 1.182-3.91.395l-4.78 4.036v3.92l4.78 4.035c1.18-.788 2.89-.63 3.913.397.566.563.882 1.33.898 2.124" fill="#231f20"/>
    <path d="M71.916 18.208v-6.487L63.2.75H23.831l-8.717 10.972-.002 6.487 8.72 10.976h39.363z" fill="#fff"/>
    <path d="M63.557 29.935H23.472l-9.11-11.466.002-7.009L23.469 0h40.093l9.103 11.46.001 7.01zm-39.361-1.5h38.637l8.333-10.488-.001-5.964L62.838 1.5H24.193l-8.33 10.483v5.964z" fill="#231f20"/>
    <path d="M15.68 15.217l-.62-.505L26.673.497l.62.506zm55.925 0L59.992 1.003l.62-.506 11.613 14.215z" fill="#231f20"/>
    <path d="M26.67 29.437l-11.61-14.22.62-.505 11.61 14.22zm33.944 0l-.62-.505 11.61-14.22.62.505z" fill="#231f20"/>
</svg>
