<svg xmlns="http://www.w3.org/2000/svg" height="29.935" width="72.666">
    <path d="M39.659 8.108a2.437 2.437 0 01-3.451-.003c-.63-.628-.833-1.516-.63-2.321H10.184c.204.805 0 1.693-.63 2.321a2.437 2.437 0 01-3.451.003l-5.437 4.59v4.54l5.437 4.59a2.436 2.436 0 013.45.002 2.42 2.42 0 01.631 2.32h25.392c-.202-.805 0-1.693.63-2.32a2.436 2.436 0 013.452-.002l5.438-4.59v-4.54z" fill="#fff"/>
    <path d="M36.433 24.817H9.328l.21-.83a1.747 1.747 0 00-.454-1.684c-.675-.678-1.84-.674-2.51-.004l-.433.434L0 17.548v-5.16l6.141-5.185.434.433c.669.67 1.84.67 2.506-.001a1.75 1.75 0 00.458-1.687l-.211-.83h27.105l-.209.829a1.752 1.752 0 00.455 1.685c.673.677 1.838.672 2.508.004l.434-.433 6.143 5.185v5.16l-6.144 5.185-.433-.434c-.671-.67-1.839-.67-2.506.001a1.753 1.753 0 00-.457 1.688zm-25.508-1.333h23.91a3.043 3.043 0 01.904-2.127c1.021-1.024 2.73-1.18 3.912-.396l4.78-4.033v-3.92l-4.782-4.036c-1.178.788-2.888.633-3.913-.397a3.044 3.044 0 01-.901-2.124H10.929a3.05 3.05 0 01-.905 2.126c-1.017 1.026-2.728 1.183-3.91.395l-4.78 4.036v3.92l4.78 4.035c1.18-.787 2.89-.632 3.913.397.566.563.882 1.33.898 2.124" fill="#231f20"/>
    <path d="M71.916 18.208v-6.487L63.2.75H23.831l-8.717 10.972-.002 6.487 8.72 10.976h39.363z" fill="#fff"/>
    <path d="M63.557 29.935H23.472l-9.11-11.466.002-7.009L23.469 0h40.093l9.103 11.46.001 7.01zm-39.361-1.5h38.637l8.333-10.488-.001-5.964L62.838 1.5H24.193l-8.33 10.483v5.964z" fill="#231f20"/>
    <g clip-path="url(#clipPath1133)" transform="matrix(1.33333 0 0 -1.33333 -281.76 226.088)">
        <path d="M224.888 158.34a.98.98 0 101.959-.001.98.98 0 00-1.959 0" fill="#231f20"/>
    </g>
    <path d="M26.67 29.437L18.264 19.16l.62-.506 8.406 10.279zm-7.82-18.151l-.617-.508L26.675.495l.618.508z" fill="#231f20"/>
    <g clip-path="url(#clipPath1153)" transform="matrix(1.33333 0 0 -1.33333 -281.76 226.088)">
        <path d="M224.612 153.579l-.49.346a7.58 7.58 0 011.385 4.383 7.596 7.596 0 01-1.409 4.422l.49.348a8.19 8.19 0 001.518-4.77 8.17 8.17 0 00-1.494-4.73m38.408 4.762a.98.98 0 11-1.96-.001.98.98 0 011.96 0" fill="#231f20"/>
    </g>
    <path d="M60.351 29.439l-.617-.508 8.444-10.29.617.508zm7.827-18.165L59.73 1.004l.617-.508 8.448 10.27z" fill="#231f20"/>
    <g clip-path="url(#clipPath1177)" transform="matrix(1.33333 0 0 -1.33333 -281.76 226.088)">
        <path d="M263.296 153.579a8.171 8.171 0 00-1.493 4.729 8.19 8.19 0 001.518 4.77l.489-.348a7.603 7.603 0 01-1.408-4.422c0-1.582.479-3.097 1.384-4.383z" fill="#231f20"/>
    </g>
</svg>
