<svg xmlns="http://www.w3.org/2000/svg" height="29.935" width="72.666">
    <path d="M39.659 8.108a2.437 2.437 0 01-3.451-.003c-.63-.628-.833-1.516-.63-2.321H10.184c.204.805 0 1.693-.63 2.321a2.437 2.437 0 01-3.451.003l-5.437 4.59v4.54l5.437 4.59a2.436 2.436 0 013.45.003 2.42 2.42 0 01.631 2.32h25.392c-.202-.806 0-1.694.63-2.32a2.436 2.436 0 013.452-.003l5.438-4.59v-4.54z" fill="#fff"/>
    <path d="M36.433 24.817H9.328l.21-.83a1.747 1.747 0 00-.454-1.684c-.675-.678-1.84-.674-2.51-.004l-.433.434L0 17.548v-5.16l6.141-5.185.434.433c.669.67 1.84.67 2.506-.001a1.75 1.75 0 00.458-1.687l-.211-.83h27.105l-.209.829a1.752 1.752 0 00.455 1.685c.673.677 1.838.672 2.508.004l.434-.433 6.143 5.185v5.16l-6.144 5.185-.433-.434c-.671-.672-1.839-.67-2.506.001a1.753 1.753 0 00-.457 1.688zm-25.508-1.333h23.91a3.043 3.043 0 01.904-2.127c1.021-1.024 2.73-1.18 3.912-.396l4.78-4.033v-3.92l-4.782-4.036c-1.178.788-2.888.633-3.913-.397a3.044 3.044 0 01-.901-2.124H10.929a3.05 3.05 0 01-.905 2.126c-1.017 1.026-2.728 1.182-3.91.395l-4.78 4.036v3.92l4.78 4.035c1.18-.787 2.89-.632 3.913.397.566.563.882 1.33.898 2.124" fill="#231f20"/>
    <path d="M71.916 18.208v-6.487L63.2.75H23.831l-8.717 10.972-.002 6.487 8.72 10.976h39.363z" fill="#fff"/>
    <path d="M63.557 29.935H23.472l-9.11-11.466.002-7.009L23.469 0h40.093l9.103 11.46.001 7.01zm-39.361-1.5h38.637l8.333-10.488-.001-5.964L62.838 1.5H24.193l-8.33 10.483v5.964z" fill="#231f20"/>
    <path d="M17.722 21.316l-.653-.461a10.107 10.107 0 001.847-5.844c0-2.128-.65-4.167-1.879-5.896l.652-.464a10.921 10.921 0 012.025 6.36c0 2.273-.688 4.453-1.992 6.305" fill="#231f20"/>
    <path d="M18.52 16.569v-.002a1.728 1.728 0 100-3.167l-.122.069c-.055.028-.11.053-.159.085l-2.58 1.43 2.58 1.43c.05.033.104.057.159.085z" fill="#fff"/>
    <path d="M19.213 17.047c-.285 0-.564-.059-.826-.175l-.15-.08c-.086-.044-.138-.07-.186-.104l-3.08-1.704 3.106-1.721c.026-.018.075-.043.126-.07l.156-.084c1.445-.646 2.916.454 2.917 1.875a2.065 2.065 0 01-2.063 2.063m-2.866-2.063l2.338 1.295a1.398 1.398 0 001.924-1.295 1.398 1.398 0 00-1.954-1.279l-.095.055c-.084.043-.112.056-.137.073z" fill="#231f20"/>
    <path d="M20.02 13.775c-.023-.08-.545-1.943.163-4.531.647-2.368 2.498-5.813 7.632-8.783l.334.578c-9.391 5.43-7.571 12.264-7.49 12.55zm7.795 15.699c-5.135-2.97-6.984-6.416-7.632-8.783-.708-2.588-.186-4.453-.164-4.53l.641.183c-.083.288-1.903 7.12 7.488 12.551z" fill="#231f20"/>
    <path d="M41.057 29.255l-.65-.14c.006-.035.173-.89-.463-1.492-.576-.547-1.962-1.017-5.295-.143-7.075 1.852-11.112-1.27-11.28-1.405l.416-.521c.037.03 3.95 3.049 10.695 1.28 2.92-.763 4.916-.66 5.932.313.9.864.657 2.057.645 2.108M69.3 21.316a10.895 10.895 0 01-1.99-6.305c0-2.296.699-4.495 2.024-6.36l.652.464a10.137 10.137 0 00-1.877 5.896c0 2.11.638 4.13 1.845 5.844z" fill="#231f20"/>
    <path d="M68.509 16.569v-.002a1.728 1.728 0 110-3.167l.122.069c.055.028.11.053.16.085l2.58 1.43-2.58 1.43c-.05.033-.105.057-.16.085z" fill="#fff"/>
    <path d="M67.816 17.047a2.065 2.065 0 01-2.063-2.063c0-1.136.926-2.063 2.063-2.063.285 0 .564.059.827.175l.15.081c.084.043.134.068.18.099l3.086 1.708-3.107 1.721c-.021.018-.073.043-.125.07l-.154.084c-.296.13-.573.188-.857.188m0-3.459c-.77 0-1.396.627-1.396 1.396a1.398 1.398 0 001.955 1.279l2.308-1.279-2.055-1.137c-.047-.031-.075-.044-.103-.058l-.178-.097a1.384 1.384 0 00-.53-.104" fill="#231f20"/>
    <path d="M67.01 13.775l-.64-.186c.081-.286 1.901-7.12-7.49-12.55l.334-.578c5.135 2.97 6.985 6.415 7.632 8.783.708 2.588.187 4.452.164 4.53m-7.795 15.7l-.334-.579c9.39-5.43 7.57-12.263 7.488-12.55l.642-.185c.02.078.544 1.943-.164 4.531-.648 2.367-2.498 5.812-7.632 8.783" fill="#231f20"/>
    <path d="M45.972 29.255c-.012-.05-.256-1.244.646-2.108 1.017-.973 3.01-1.076 5.932-.312 6.738 1.768 10.656-1.25 10.694-1.281l.416.52c-.168.137-4.204 3.26-11.28 1.406-3.34-.876-4.725-.401-5.3.148-.636.61-.458 1.478-.457 1.487zM23.785 4.381l-.416-.522c.17-.135 4.202-3.259 11.28-1.404 3.344.877 4.728.401 5.301-.15.636-.609.457-1.476.457-1.476l.65-.149c.012.05.256 1.243-.646 2.108-1.016.97-3.012 1.075-5.932.312-6.74-1.772-10.657 1.25-10.694 1.281m39.46 0c-.04-.032-3.951-3.053-10.695-1.281-2.921.763-4.915.659-5.932-.312-.901-.865-.657-2.057-.645-2.108l.65.14c-.006.033-.173.89.463 1.49.575.547 1.963 1.02 5.295.145 7.078-1.852 11.11 1.27 11.28 1.404z" fill="#231f20"/>
</svg>
