<svg xmlns="http://www.w3.org/2000/svg" height="12.479" width="46.773">
    <path d="M40.535 0c-3.236 0-5.872 2.484-6.179 5.64h-4.79C29.258 2.484 26.622 0 23.385 0c-3.235 0-5.871 2.484-6.178 5.64h-4.79C12.11 2.484 9.474 0 6.237 0A6.246 6.246 0 000 6.239a6.246 6.246 0 006.239 6.24c2.7 0 4.982-1.734 5.849-4.139h5.45c.867 2.405 3.15 4.139 5.849 4.139 2.7 0 4.981-1.734 5.849-4.139h5.45c.867 2.405 3.149 4.139 5.849 4.139a6.246 6.246 0 006.238-6.24A6.246 6.246 0 0040.535 0M6.239 11.281A5.048 5.048 0 011.197 6.24 5.048 5.048 0 016.24 1.196a5.05 5.05 0 015.042 5.043A5.05 5.05 0 016.24 11.28m6.034-3.54c.074-.293.115-.596.144-.904h4.791c.03.308.07.611.144.904zm11.114 3.54a5.05 5.05 0 01-5.043-5.042 5.05 5.05 0 015.043-5.043 5.05 5.05 0 015.042 5.043 5.05 5.05 0 01-5.042 5.042m6.034-3.54c.074-.293.115-.596.144-.904h4.791c.03.308.07.611.144.904zm11.114 3.54a5.05 5.05 0 01-5.043-5.042 5.05 5.05 0 015.043-5.043 5.05 5.05 0 015.042 5.043 5.05 5.05 0 01-5.042 5.042" fill="#231f20"/>
</svg>
