<svg xmlns="http://www.w3.org/2000/svg" width="783.257" height="131.944" preserveAspectRatio="none">
    <path d="M112.381 55.984l31.007 2.32-31.007 2.319-31.002-2.32zm185.599 8.692l31.005 2.319 31.008-2.32-31.008-2.32zM450.37 42.02l29.715-2.221-36.64-2.74 56.064-4.19-49.929-3.735 69.17-5.17-117.785-8.81 31.648-2.364-57.782-4.323-51.34 3.84L300.4 9.3l56.65-4.232-45.398-3.396-31.64 2.364L243.28 1.29l-34.335 2.569 34.886 2.61-38.438 2.875-38.43-2.874 22.276-1.667-26.614-1.99-85.09 6.36 30.152 2.255-95.614 7.147 56.308 4.21-29.714 2.222 36.637 2.74-56.061 4.19 49.926 3.735L0 40.843l95.059 7.11-43.526 3.256 45.947 3.434 11.883-.888 34.554 2.585 51.342-3.84 23.065 3.003-59.83 4.474 82.131 6.139 17.959-1.341-32.33-2.42 46.167-3.452 32.358 2.42 21.182-1.584 30.163 2.254 85.09-6.36-30.149-2.254 95.612-7.146zM244.012 123l25.188 1.884-25.188 1.884-25.184-1.884zm150.763 7.06l25.187 1.884 25.188-1.884-25.188-1.884zm123.788-18.4l24.137-1.806-29.762-2.226 45.54-3.404-40.558-3.033 56.187-4.2-95.676-7.156 25.708-1.921-46.937-3.51-41.704 3.118-18.756-2.442 46.017-3.438-36.879-2.759-25.7 1.921-29.838-2.232-27.89 2.087 28.336 2.121-31.221 2.335-31.217-2.335 18.094-1.353-21.618-1.617-69.12 5.166 24.493 1.832-77.668 5.806 45.74 3.42-24.137 1.804 29.76 2.226-45.54 3.403 40.557 3.035-56.187 4.2 77.216 5.774-35.354 2.646 37.322 2.79 9.652-.722 28.07 2.1 41.704-3.12 18.736 2.44-48.6 3.634 66.716 4.987 14.588-1.09-26.262-1.965 37.502-2.805 26.284 1.965 17.206-1.285 24.502 1.83 69.12-5.166-24.491-1.83 77.667-5.806z" fill="#deddde"/>
    <path d="M511.013 59.674l20.773 1.555-20.773 1.552-20.77-1.552zm124.341 5.823l20.772 1.553 20.773-1.553-20.773-1.555zM737.447 50.32l19.907-1.488-24.547-1.835 37.56-2.808-33.449-2.503 46.339-3.462-78.908-5.903 21.202-1.584-38.712-2.896-34.394 2.572-15.47-2.013 37.954-2.836-30.416-2.275-21.196 1.584-24.61-1.84-23.002 1.721 23.372 1.75-25.75 1.925-25.748-1.925 14.924-1.118-17.829-1.333-57.007 4.261 20.2 1.511-64.056 4.788 37.724 2.821-19.908 1.488 24.546 1.835-37.558 2.808 33.448 2.503-46.34 3.462 63.684 4.764-29.158 2.182 30.781 2.3 7.96-.595 23.15 1.732 34.395-2.573 15.454 2.012-40.083 2.998 55.024 4.112 12.03-.898-21.66-1.622 30.93-2.313 21.679 1.621 14.19-1.06 20.208 1.511 57.006-4.261-20.198-1.51 64.055-4.789z" fill="#deddde"/>
</svg>
