<svg xmlns="http://www.w3.org/2000/svg" width="783.257" height="131.944">
    <defs>
        <clipPath clipPathUnits="userSpaceOnUse" id="a">
            <path d="M0 0h612v792H0z"/>
        </clipPath>
        <clipPath clipPathUnits="userSpaceOnUse" id="b">
            <path d="M0 0h612v792H0z"/>
        </clipPath>
        <clipPath clipPathUnits="userSpaceOnUse" id="c">
            <path d="M111.56 748.005h144v15.484h-144z"/>
        </clipPath>
    </defs>
    <g clip-path="url(#a)" transform="matrix(1.33333 0 0 -1.33333 -11.41 1034.88)">
        <path d="M87.06 771.19c-.43-2.8.22-6.34.22-6.34s-2.05 1.5-4.29 2.77c-1.33.75-2.46 2.42-3.16 3.65-.48.85-.76 1.48-.76 1.48-3.11-3.34-1.1-7.27-1.1-7.27-4.85 1.06-7.88-.19-7.88-.19 9.18-6.01 4.3-6.5-1-9.01-5.29-2.51-5.68-5.63-5.68-5.63 6.33 2.08 8.85-.58 8.85-.58-3.41-3.26-.37-8.35-.37-8.35 3.31-6.34 11.51-9.04 18.85-10.15 7.27-1.11 13.7-.67 13.7-.67l-16.72-5.2-15.02-3.79s-14.91 1.6-20.39 14.22c-5.47 12.63 4.09 22.57 3.13 23.22-.91.62-2.07-.76-2.19-.91 4.16 11.91 16.69 11.78 17.19 13.04.51 1.27-2.47 1.35-2.47 1.35 12.67 4.17 19.09-1.64 19.09-1.64" fill="#231f20"/>
        <path d="M574.247 737.143V699c14.567.085 16.462 0 18.946 3.228v37.5c-4.659-2.474-9.473-2.55-18.946-2.586" fill="#fff"/>
        <path d="M574.247 737.143V699c14.567.085 16.462 0 18.946 3.228v37.5c-4.659-2.474-9.473-2.55-18.946-2.586z" fill="none" stroke="#231f20" stroke-width="1.375" stroke-miterlimit="10"/>
        <path d="M573.643 734.308c16.235.054 17.687 1.176 19.157 2.303m-18.554-34.496c19.602-2.231 17.932 3.579 18.804 3.754" fill="none" stroke="#231f20" stroke-width=".75" stroke-miterlimit="10"/>
        <path d="M197.62 706.197c-.004-.014-.015-.023-.019-.036a1.077 1.077 0 01.143-.901c.218-.324 5.426-7.942 12.223-7.942 1.513 0 2.994.383 4.47 1.177.59.375 1.158.755 1.648 1.098 3.578 2.192 7.058 5.399 8.32 6.604z" fill="#fff"/>
    </g>
    <path d="M29.134 60.974v50l47.333-6.186v-50z" fill="#fff"/>
    <path d="M29.134 60.974v50l47.333-6.186v-50z" fill="none" stroke="#231f20" stroke-width="1.833" stroke-miterlimit="10"/>
    <path d="M30.169 107.261l46.299-6.566m-46.3-36.376l46.3-5.89" fill="none" stroke="#231f20" stroke-miterlimit="10"/>
    <path d="M76.467 54.789L44.175 50.01v50l32.292 4.778z" fill="#c1c0c2"/>
    <path d="M76.467 54.789L44.175 50.01v50l32.292 4.778z" fill="none" stroke="#231f20" stroke-width="1.833" stroke-miterlimit="10"/>
    <g clip-path="url(#b)" transform="matrix(1.33333 0 0 -1.33333 -11.41 1034.88)">
        <path d="M260.728 701.151c-61.753-11.25-157.286 11.25-219.04 0v37.5c61.754 11.25 157.287-11.25 219.04 0z" fill="#fff"/>
        <path d="M260.728 701.151c-61.753-11.25-157.286 11.25-219.04 0v37.5c61.754 11.25 157.287-11.25 219.04 0z" fill="none" stroke="#231f20" stroke-width="1.375" stroke-miterlimit="10"/>
        <path d="M261.606 704.774s-20.5-8.666-114.666-.333c-66.51 5.886-99.718.727-104.856-.173m218.644 31.461s-19.872-8.038-114.038.295c-66.51 5.886-99.718.726-104.856-.173" fill="none" stroke="#231f20" stroke-width=".75" stroke-miterlimit="10"/>
    </g>
    <path d="M754.628 115.49H336.103V34.632h418.525z" fill="#fff"/>
    <path d="M754.628 115.49H336.103V34.632h418.525z" fill="none" stroke="#231f20" stroke-width="1.667" stroke-miterlimit="10"/>
    <path d="M333.305 26.222l-.001 97.678c1.397-3.355 2.797-4.754 2.797-4.754l.001-88.172s-1.4-1.394-2.797-4.752" fill="#fff"/>
    <path d="M333.305 26.222l-.001 97.678c1.397-3.355 2.797-4.754 2.797-4.754l.001-88.172s-1.4-1.394-2.797-4.752z" fill="none" stroke="#231f20" stroke-width="1.667" stroke-miterlimit="10"/>
    <path d="M336.102 45.15s1.423-13.777 11.201-13.777h29.334s9.554 3.26 27.333 3.26m-67.87 70.34s1.423 13.776 11.202 13.776h29.333s9.555-3.26 27.334-3.26" fill="none" stroke="#231f20" stroke-width="1.667" stroke-miterlimit="10"/>
    <path d="M757.424 26.222l.002 97.678c-1.398-3.355-2.798-4.754-2.798-4.754l-.001-88.172s1.4-1.394 2.797-4.752" fill="#fff"/>
    <path d="M757.424 26.222l.002 97.678c-1.398-3.355-2.798-4.754-2.798-4.754l-.001-88.172s1.4-1.394 2.797-4.752z" fill="none" stroke="#231f20" stroke-width="1.667" stroke-miterlimit="10"/>
    <path d="M754.627 45.15s-1.422-13.777-11.201-13.777h-29.333s-9.555 3.26-27.334 3.26m67.87 70.34s-1.423 13.776-11.202 13.776h-29.333s-9.555-3.26-27.333-3.26" fill="none" stroke="#231f20" stroke-width="1.667" stroke-miterlimit="10"/>
    <path d="M725.43 34.635c-6.937 1.21-15.287 2.564-22.942 2.564H388.241c-7.654 0-16.005-1.354-22.94-2.564m0 80.855c6.935-1.21 15.286-2.564 22.94-2.564h314.247c7.655 0 16.005 1.353 22.941 2.564" fill="none" stroke="#231f20" stroke-miterlimit="10"/>
    <path d="M121.55 27.76c4.521 1.827 5.72 6.214 5.72 6.214-3.799-.107-4.919-3.04-5.72-6.214" fill="#fff"/>
    <path d="M329.958 106.72c-.853-4.624-4.116-12.165-10.436-16.141-5.223-3.28-9.785-2.57-9.807-4.2-.038-2.071 5.816-1.43 5.816-1.43-6.313-3.616-15.369.81-16.664-1.261-.764-1.241 4.215-2.984 4.215-2.984-7.701-.283-16.79 3.687-20.435 7.288 9.187-3.084 22.124-1.31 28.067 3.767-2.516-1.414-5.244-2.358-8.044-2.918-10.425-2.096-22.03 1.007-29.017 3.914-7.886 2.67-13.9 6.614-13.9 6.614-5.206 3.026-14.819 5.846-21.338 3.087l-.001.013s10.205 16.999 22.745 11.086a59.741 59.741 0 002.631-1.558c6.845-3.713 13.739-9.908 13.739-9.908 2.397-1.676 9.778-6.482 18.665-9.168a13.76 13.76 0 015.899-.438c4.956.673 9.276 3.85 10.693 7.649 3.827-.667 13.527 2.539 17.172 6.588M127.27 33.973s-1.199-4.386-5.72-6.213c.801 3.173 1.92 6.107 5.72 6.213m-14.56 11.734c-1.053-5.68-8.893-6.654-12.932-4.04 1.4-3.76 5.333-7.174 8.372-8.254-1.733-.666-3.773-1.24-5.972-1.72 2.585-1.973 8.947-3.466 12.173-3.186a12.835 12.835 0 00-1.921-.4l.613-3.694c-.358-3.093-3.16-6.64-6.493-8.773-1.652-4.733-.039-13.347 2.241-15.64-1.148 12.387 16.346 20.04 19.746 29.173-1.92-7.8-10.014-12.946-13.8-17.693-1.2-3.12-.04-8.28 1.413-10.027-.667 8.307 8.107 15.08 12.76 19.88 5.495 5.64 6.947 10.534 6.055 14.467 1.225.373 2.892 1.627 2.546 3.653 1.812-.36 3.72-2.373 4.199-3.64.707 6.214-3.133 12.627-7.252 14.454 0 0 1.185-2.907-.613-5.227-1.762-2.28-6.947-2.467-8.708-2.4 0 0 2.254-3.12 1.44-4.76-.987-2.04-11.172-1.467-15.774.04 1.56-.12 5.215.4 6.467.973-.747 1.04-2.747 5.454-1.439 6.84 1.106 1.187 2.667-.573 2.866-.8-.147.427-1.68 4.88-.626 6 1.094 1.174 3.56.44 3.56.44-1.641 3.787-7.626 6.254-11.761 6.12 1.493-.413 4.013-2.96 4.428-4.533-1.108.507-3.935.733-5.013.493 1.346-.506 4.132-3.853 3.425-7.746" fill="#231f20"/>
    <path d="M90.897 22.427c.68-2.4-3.986-6.68-5.748-7.507 6.588-.066 9.828 1.267 9.828 1.267-1.64-2.573-2.08-6.467-1-9.507 3.32 8.707 16.107 10.494 19.066 17.734l-.614 3.693c-5.053-.653-12.505.853-16.265 5.027 1.307.04 4.68.773 5.985 1.24-5.692.853-13.532 5.866-15.88 8.28.695-3.254 1.695-5.987.988-7.974-1-2.8-4.333-4.08-11.066-2.893 4.653-4.387 14-6.907 14.706-9.36M53.524 44.448l1.359 2.96c-1.826.307-3.88 7.52-3.88 7.52-4.652-2.693-.732-11.306-.732-11.306z" fill="#231f20"/>
    <path d="M43.364 43.222s2.426-1.747 3.706-2.067l2.12 1.88-1.093.333s-2.039 6.667-1.213 9.427l1.333 3.867s-4.347-.867-5.013-2.534c0 0-1.4-7.506.16-10.906" fill="#231f20"/>
    <path d="M40.91 46.048s.28 8.56 1.16 9.32l3.227 1.373.093 2.92s-5.76-1.826-6.24-4.026c-.48-2.2-.853-7.667-.853-7.667s.96-1.427 2.613-1.92" fill="#231f20"/>
    <g clip-path="url(#c)" transform="matrix(1.33333 0 0 -1.33333 -11.41 1034.88)">
        <path d="M253.353 757.907c.386 0 .386-.567 0-.567h-.526v.567zm.38-.996c.901.204.716 1.583-.38 1.583h-1.182v-2.48h.656v.77h.23l.59-.77h.704v.142zm-.588-1.596c1.17 0 1.827.854 1.827 1.938 0 1.08-.658 1.933-1.827 1.933-1.162 0-1.82-.854-1.826-1.933.006-1.084.664-1.938 1.826-1.938m2.414 1.938c0-1.322-.868-2.437-2.413-2.437-1.54 0-2.408 1.115-2.408 2.437 0 1.32.868 2.431 2.408 2.431 1.545 0 2.413-1.112 2.413-2.43m-74.791 1.875c-.033.258-.015.523.061.76l.336 1.048.422-1.014c.123-.295.382-.51.69-.706-.028.487.06 1.028.233 1.4-.036.785.507 1.372 1.155 1.372 1.11 0 1.406-1.342.891-2.303.24-.36.603-.694.925-.984.115-.104.224-.202.32-.294.03-.031.046-.058.076-.088.482.653.835 1.563.835 2.25 0 1.427-.927 2.75-2.855 2.854-1.223.065-2.049-.312-2.664-.94-.278-.284-.897-1.002-.779-2.302.045-.49.21-.832.354-1.053m5.17-6.596c-.442-.747-1.366-1.712-2.306-1.712-1.733 0-2.602 2.448-.67 4.456a.89.89 0 01-.252.04.787.787 0 01-.428-.115l-.855-.734.241 1.195c.015.04.03.08.047.12-.429-.217-.845-.518-1.005-.692l-.774-.843.078 1.189.053.262c.04.185.088.416.06.49a.143.143 0 01-.05.058c-.36-.277-1.336-1.14-1.45-2.42 0 0 .19.269.355.332.11.042.204-.012.1-.332-.04-.125-.99-2.694.877-4.472 0 0-.205.52-.08.68.06.077.137.084.247-.054.08-.107.162-.21.253-.31v-.001h.001c.154-.175.324-.341.51-.484a3.84 3.84 0 012.18-.705c2.298 0 3.517 1.575 4.197 2.908-.03.038-.054.077-.096.114-.348.306-.852.724-1.234 1.03m5.222 4.555c-1.718-.083-3.19-1.54-3.952-2.57.136-.045.273-.108.41-.216.158-.128.391-.318.642-.526.204.45.663 1.36 1.367 2.167.643.736 1.763.807 2.35.358.378.343 1.682.664 2.37.469-.418.455-1.308 1.065-2.29 1.065-.81 0-1.268-.398-1.385-.22-.149.229.548.568.548.568-.957-.04-1.652-1.164-1.942-1.026-.173.084.258.628.258.628-.875-.508-1.608-1.585-1.76-2.24.805.985 2.368 1.692 3.384 1.543m35.351-4.702c-.06.094-.097.176-.097.503v2.15c0 .326.03.387.091.484.067.107.184.265.185.266l.04.053-.059.03a.978.978 0 01-.322.1v-.003c-.044.003-3.395.003-3.395.003l.171-.105s.5-.304.724-.445c.218-.137.33-.293.33-.768v-1.171a2.644 2.644 0 00-.82-.117c-1.369 0-2.062.74-2.062 2.195 0 1.388.76 2.183 2.083 2.183.83 0 1.703-.19 2.765-.99l-.005.057-.244 2.307-.019.17-.165.039-.162.038c-.71.164-.987.207-1.408.26-.249.03-.385.046-.698.046h-.134c-2.495 0-4.308-1.745-4.308-4.151 0-2.368 1.822-4.088 4.331-4.088.44 0 1.284.08 1.816.192.101.02.16.037.238.056l.052.01c.3.073.605.15.914.244l.39.12-.046.065a5.033 5.033 0 00-.186.267m18.333 7.168h-4.519l.17-.103c.004-.003.436-.27.702-.443.241-.161.332-.27.332-.787v-1.931l-3.336 3.265v-.001h-2.653l.158-.102c.004-.003.41-.268.644-.438.231-.17.341-.34.341-.858V752.9c0-.515-.093-.624-.324-.767a34.8 34.8 0 00-.756-.445l-.18-.105h4.53l-.18.105c-.006.003-.509.292-.752.445-.227.143-.326.26-.326.767v3.17l4.845-4.744v6.894c0 .514.086.619.332.787.268.182.761.438.767.44zm-29.056-4.683l-.719 1.96-.78-1.96zm-7.413 2.41c0 .408-.266.68-1.034.684l-.267-.002v-1.858c.112-.002.224-.002.264-.002.506 0 1.037.112 1.037 1.178m11.091-5.168l.674-.53h-4.169s.354.34.513.507c.138.145.21.289.106.535-.023.06-.07.19-.129.355h-2.889a7.515 7.515 0 00-.135-.355c-.117-.286-.09-.367.072-.521.177-.171.612-.52.612-.52h-4.373l-2.006 2.42-.006.006-.003.005c-.218.299-.383.469-.535.549a.511.511 0 01-.124.039v-1.701c0-.5.095-.591.331-.771.242-.185.948-.547.948-.547h-4.662s.713.399.934.549c.206.139.33.26.33.769v5.309c0 .492-.108.645-.333.785-.233.145-.704.442-.704.442l-.165.105h3.795c.73-.01 1.02-.032 1.425-.155.976-.281 1.581-1.093 1.581-2.118 0-.477-.135-.92-.388-1.28a2.167 2.167 0 00-.733-.677c.834-1.115 1.493-1.945 1.9-2.391.026.047 2.413 5.812 2.413 5.812a.592.592 0 01.013.109c0 .04 0 .089-.12.198l-.564.514h3.142s2.616-6.635 2.635-6.675h-.002c.073-.165.094-.198.17-.312.111-.166.15-.223.446-.455m14.067 3.464c0 1.305-.827 2.148-2.108 2.148-1.229 0-1.993-.843-1.993-2.201 0-1.312.81-2.16 2.057-2.16 1.202 0 2.044.91 2.044 2.213m2.294 0c0-2.353-1.874-4.128-4.359-4.128-2.502 0-4.317 1.714-4.317 4.075 0 2.398 1.805 4.14 4.295 4.14 2.498 0 4.381-1.757 4.381-4.087m12.311 1.115l-.323.079-.029.006c-.759.179-1.255.32-1.255.646 0 .11.032.196.097.26.134.134.411.209.783.209.062 0 .127-.003.19-.008h.025l.038-.005c.686-.06 1.505-.358 2.344-.916l-.132 2.353-.154.052-.028.01c-.012.004-.1.034-.36.09-.159.036-.97.21-1.455.246a6.122 6.122 0 01-.46.017c-1.777 0-2.815-.842-2.927-2.372-.056-.765.321-1.512.956-1.9.568-.345 1.417-.605 2.036-.796l.142-.043c.388-.12.834-.36.773-.823-.033-.242-.127-.502-.856-.502-.105 0-.22.005-.348.017-.502.044-1.089.33-1.74.85a.564.564 0 01-.062.048l-.402.305-.415.314.165-2.984.154-.051.03-.011c.006-.001.092-.03.362-.09.268-.06 1.15-.212 1.598-.244a5.8 5.8 0 01.44-.017c1.94 0 3.218.965 3.256 2.459.037 1.438-.786 2.38-2.443 2.8m-46.273-1.124c0 1.306-.674 2.056-1.848 2.056h-.896v-4.102h.896c1.174 0 1.848.747 1.848 2.046m2.318.02c0-.926-.303-1.838-.832-2.497a3.788 3.788 0 00-.856-.782c-.79-.528-1.52-.724-2.688-.724h-4.167l.177.103c.001.002.516.303.755.448.231.139.327.275.327.768v4.6c0 .505-.14.646-.338.788-1.028.75-1.114 1.61-1.117 1.647l-.01.115.096-.064a2.62 2.62 0 01.724-.31c.44-.1 1.042-.117 2.31-.117h1.602v-.007c.8-.032 1.385-.178 1.96-.48 1.288-.674 2.057-1.977 2.057-3.487m-59.35-3.54c-.002.002-.119.16-.187.268-.06.094-.096.174-.096.502v2.15c0 .326.03.387.09.484.068.107.184.266.185.267l.04.052-.059.03a.959.959 0 01-.32.1v-.002c-.045.002-3.396.002-3.396.002l.171-.104.723-.444c.22-.138.331-.296.331-.77v-1.17a2.653 2.653 0 00-.823-.116c-1.366 0-2.06.737-2.06 2.194 0 1.387.76 2.184 2.084 2.184.83 0 1.701-.192 2.764-.992l-.005.057-.244 2.307-.017.17-.167.04-.16.037c-.71.164-.988.208-1.41.26-.249.03-.384.047-.697.047h-.134c-2.496 0-4.308-1.746-4.308-4.151 0-2.368 1.821-4.088 4.331-4.088.438 0 1.284.08 1.816.19.101.023.158.038.238.055l.052.013c.301.07.605.148.914.243l.39.12zm25.184 7.506h-4.518l.17-.103c.004-.004.436-.27.7-.444.242-.16.333-.27.333-.786v-1.932l-3.335 3.265h-2.654l.16-.103c.003-.002.41-.267.643-.437.232-.17.341-.34.341-.858V752.9c0-.515-.093-.624-.325-.767a43.067 43.067 0 00-.754-.445l-.183-.105h4.533l-.183.105c-.005.002-.507.292-.75.445-.228.143-.327.26-.327.767v3.17l4.845-4.745v6.895c0 .513.085.619.332.787.268.182.761.438.767.44zm-6.65 0zm-25.665 0h-4.518l.17-.103c.004-.004.437-.27.701-.444.242-.16.333-.27.333-.786v-1.932l-3.336 3.266.001-.001h-5.245c-.156 0-.32-.095-.329-.1l-.053-.03.037-.051c.001-.001.117-.16.184-.266.052-.081.08-.137.09-.35l-.002-4.063v-.009l.002-.031c-.013-.857-.394-1.292-1.2-1.292-.819 0-1.235.45-1.235 1.332l-.002 4.063c.007.213.037.269.088.35.068.107.184.265.186.266l.037.05-.054.032c-.008.004-.174.1-.33.1l-3.354-.001.171-.103c.004-.003.436-.267.704-.444.241-.16.332-.268.332-.786v-3.29c0-.723.087-1.306.25-1.683a2.59 2.59 0 01.565-.79c.685-.675 1.548-1.002 2.64-1.002 1.514 0 2.701.685 3.175 1.828.184.444.245.843.245 1.584v3.353c0 .518.092.627.333.786.144.095.334.214.48.305.135-.09.31-.207.433-.298.232-.17.342-.34.342-.858V752.9c0-.515-.093-.624-.326-.767-.254-.156-.75-.443-.753-.445l-.182-.105h4.532l-.183.105c-.005.002-.508.292-.75.445-.227.143-.327.26-.327.767v3.17l4.844-4.745v6.895c0 .514.087.619.333.787.268.182.761.438.767.44zm12.41-6.034h-1.808v1.167h1.693c.221.004.461.009.598-.06.16-.075.27-.24.272-.24l.08-.121-.003 2.554-.067-.04c-.002-.001-.109-.067-.2-.107-.082-.033-.137-.05-.5-.05h-1.873v.996h1.876c.482 0 .587-.043.862-.237l.464-.355-.245 2.527h-6.38l.17-.103c.003-.004.436-.27.7-.444.24-.161.332-.271.332-.786v-5.32c0-.522-.08-.615-.325-.767a40.927 40.927 0 00-.75-.445l-.183-.105h6.616l.592 2.66s-.533-.384-.685-.478c-.295-.181-.525-.246-1.236-.246m23.2 3.172l-.324.079-.03.006c-.757.179-1.253.32-1.253.646 0 .11.03.196.097.259.133.135.412.21.783.21.062 0 .126-.003.19-.008l.023-.001.04-.004c.685-.06 1.503-.358 2.342-.916l-.13 2.353-.154.052-.029.009a3.14 3.14 0 01-.363.092c-.157.035-.967.21-1.453.244a6.09 6.09 0 01-.46.018c-1.775 0-2.815-.842-2.926-2.372-.056-.765.32-1.512.958-1.9.568-.345 1.415-.606 2.035-.796l.142-.043c.386-.12.833-.36.772-.823-.03-.242-.127-.502-.855-.502-.105 0-.22.005-.348.017-.504.044-1.09.33-1.74.85-.027.02-.048.039-.063.048l-.403.305-.414.314.165-2.984.157-.051.027-.011c.006-.001.091-.03.362-.09a16.053 16.053 0 011.597-.244c.145-.011.294-.017.44-.017 1.941 0 3.22.965 3.257 2.459.036 1.438-.786 2.38-2.443 2.8m-55.32-1.124c0 1.306-.673 2.056-1.847 2.056h-.896v-4.102h.896c1.174 0 1.847.747 1.847 2.046m2.317.02c0-.926-.303-1.838-.83-2.497a3.788 3.788 0 00-.857-.782c-.79-.528-1.519-.724-2.688-.724h-4.168l.178.103c0 .002.516.303.756.448.231.139.326.275.326.768v4.6c0 .505-.139.646-.337.788-1.028.75-1.116 1.61-1.118 1.647l-.01.115.096-.064c.004-.002.346-.222.724-.31.44-.1 1.042-.117 2.31-.117h1.602v-.007c.8-.032 1.385-.178 1.96-.48 1.287-.674 2.056-1.977 2.056-3.487m38.398-.004c0 1.305-.827 2.149-2.107 2.149-1.228 0-1.99-.844-1.99-2.203 0-1.311.805-2.16 2.053-2.16 1.203 0 2.044.91 2.044 2.214m2.295 0c0-2.354-1.875-4.13-4.36-4.13-2.502 0-4.317 1.715-4.317 4.076 0 2.399 1.806 4.139 4.295 4.139 2.498 0 4.382-1.756 4.382-4.085m24.622.8l-.075.244a1.421 1.421 0 01-.834.856l-.348.129.101-.357c.087-.306.248-.872.901-.872zm-4.724 1.456c.075.295-.509.798-.726.892.801.032 1.2-.118 1.2-.118-.209.308-.277.78-.158 1.153.437-1.047 1.998-1.215 2.385-2.085-.055.376-.409.796-.82 1.042-.22.57-.056 1.623.213 1.912-.094-1.512 2.063-2.377 2.512-3.475-.263.94-1.269 1.536-1.747 2.1-.157.374-.035 1.008.135 1.224-.05-1.012 1.042-1.802 1.627-2.368.687-.667.883-1.256.79-1.738.15-.04.358-.186.323-.434.22.05.444.304.497.458.108-.751-.334-1.547-.828-1.784 0 0 .134.359-.093.633-.223.27-.854.275-1.069.258 0 0 .263.389.158.586-.128.243-1.365.137-1.918-.064.188.02.635-.03.79-.095-.087-.13-.314-.674-.15-.837.15-.15.347.11.347.11s-.193-.596-.056-.734c.14-.137.435-.04.435-.04-.184-.466-.904-.79-1.405-.79.18.058.475.379.52.569-.132-.065-.475-.103-.608-.08.163.067.49.488.386.957-.147.687-1.106.774-1.586.442.155.462.621.894.987 1.035a4.77 4.77 0 01-.733.186c.306.25 1.076.456 1.468.434-.598.155-1.693-.037-2.194-.63.16 0 .573-.078.733-.128-.689-.125-1.624-.765-1.9-1.067.072.398.184.734.09.974-.133.335-.542.478-1.358.31.551.55 1.677.892 1.753 1.192m12.918-6.615c0-1.138-1.132-2.026-2.414-1.845.327-.305 1.12-.512 1.541-.321-.24-.436-1.4-1.054-2.495-.764-1.024.273-1.474 1.252-1.5 1.874-.484-.484-.353-1.273-.008-1.585-.4.104-1.002.519-1.104 1.264-.086.64.27 1.37-.398 1.959-.399.35-1.006.853-1.399 1.162-.824.645-.512 1.119-.697 1.46-.142.263-.488.41-.695.65a.742.742 0 00-.084.808c-.035-.288.171-.503.445-.594.304-.1.56-.017.82-.168.311-.18.166-.667.392-.84.203-.153.71.05 1.141-.298.434-.348 1.406-1.157 1.825-1.502.753-.62 1.53.087 1.272.797.765-.453.85-1.72.213-2.162.6-.136 1.68.132 1.68 1 0 .53-.49.906-.84.965 1.23.115 2.305-.747 2.305-1.86" fill="#231f20"/>
    </g>
</svg>
