<svg xmlns="http://www.w3.org/2000/svg" height="38" width="96">
    <path d="M9.523 1.102A21.448 21.448 0 000 18.938c0 7.168 3.56 13.836 9.525 17.836l.336.226h23.21l.336-.226a21.493 21.493 0 003.421-2.86h53.248l.267-.448c.765-1.286 3.18-4.824 5.13-5.74l.527-.248-.003-17.08-.525-.248c-1.95-.916-4.365-4.456-5.132-5.742l-.267-.446H36.831a21.622 21.622 0 00-3.423-2.86l-.336-.227H9.86zM2.667 18.938c0-6.144 2.988-11.87 8.012-15.396h10.768C26.4 5.731 33.109 6.96 36.4 7.572c2.46 3.227 3.865 7.188 3.865 11.362v.008c0 4.173-1.406 8.133-3.866 11.361-3.291.612-9.999 1.841-14.952 4.03H10.68a18.788 18.788 0 01-8.013-15.395M80.6 5.795c3.201 1.19 11.603 4.741 13.564 9.845l.003 6.591c-1.962 5.104-10.367 8.66-13.567 9.85H49.111c-.832-.745-2.634-1.903-5.986-2.209.967-1.634 3.104-5.828 3.104-10.934 0-5.107-2.137-9.3-3.104-10.935 3.352-.305 5.154-1.464 5.986-2.208zM41.991 8.068c.658 1.044 3.238 5.491 3.238 10.87 0 5.378-2.58 9.825-3.238 10.869a22.065 22.065 0 00-2.047.043 21.424 21.424 0 002.988-10.912v-.004c0-3.902-1.063-7.651-2.987-10.908.731.048 1.412.06 2.046.042m-9.739 26.267h-5.568c3.357-1.366 6.241-2.254 8.705-2.792a18.853 18.853 0 01-3.137 2.792m7.01-3.404c4.122-.374 6.633.393 8.049 1.15h-8.882c.29-.374.566-.758.832-1.15m49.784 1.15h-5.73c3.454-1.485 8.437-4.116 10.852-7.709v1.98c-2.212 1.356-4.368 4.544-5.122 5.73m5.119-20.558v1.979c-2.415-3.594-7.395-6.222-10.85-7.707h5.729c.753 1.185 2.91 4.373 5.121 5.728M47.311 5.795c-1.416.757-3.927 1.524-8.05 1.15a22.683 22.683 0 00-.83-1.15zm-11.92.539c-2.466-.539-5.348-1.427-8.707-2.792h5.57a18.8 18.8 0 013.137 2.792" fill="#231f20"/>
</svg>
