<svg xmlns="http://www.w3.org/2000/svg" height="38" width="96">
    <path d="M1 36.76c3.546-.17 7.362 1.081 9.855-1.893 2.33-.23 5.888 1.334 7.961 1.68 2.962-.18 7.336-3.624 9.727-.137 6.648 2.98 7.179-2.685 10.977-3.433h49.986c1.417-3.953 7.108-5.32 5.494-10.07-1.072-4.394 2.396-10.792-2.158-13.489-2.261-2.885-3.997-5.855-8.336-4.395H36.52c2.059-5.2-5.467-4.482-8.243-3.144-2.449 3.172-6.886-.378-9.578-.424C15.636 1.903 11 5.128 8.686 1.24-.27-1.487.513 5.525 1 12.24v24.52z" fill="#fff"/>
</svg>
