<svg xmlns="http://www.w3.org/2000/svg" height="38" width="96">
    <path d="M95.997 10.699l-.526-.248c-1.95-.916-4.366-4.454-5.131-5.74l-.267-.448H37.52V.48h-9.166l-.35.44a6.53 6.53 0 01-2.116 1.737 18.01 18.01 0 00-6.192-1.446 1.036 1.036 0 00-.936-.603 1.033 1.033 0 00-.935.603c-2.133.111-4.23.6-6.19 1.446A6.504 6.504 0 019.516.92l-.35-.44H0V38h9.167l.35-.44a6.491 6.491 0 012.114-1.737 17.8 17.8 0 006.198 1.454c.17.36.531.591.93.594.412 0 .762-.246.929-.594a17.834 17.834 0 006.201-1.453 6.517 6.517 0 012.114 1.735l.35.44h9.166v-3.783h52.557l.267-.448c.765-1.287 3.18-4.824 5.129-5.741L96 27.78zm-9.128 18.8H40.191V8.98h46.681c3.09 1.743 6.196 4.11 7.293 6.962v6.589c-1.096 2.853-4.202 5.221-7.296 6.965M37.52 8.981h1.673v20.516H37.52zm56.645 2.844v1.978c-2.416-3.592-7.397-6.222-10.85-7.707h5.727c.755 1.187 2.912 4.373 5.123 5.73M80.6 6.096a47.496 47.496 0 014.378 1.885H37.52V6.096zm-62.7-3.9c.182.3.507.485.858.488.368 0 .674-.2.86-.488a16.98 16.98 0 014.893.979c-.49.122-.992.185-1.496.186h-8.512c-.51 0-1.01-.066-1.495-.186a16.96 16.96 0 014.892-.979m1.716 34.085a1.027 1.027 0 00-.858-.488 1.02 1.02 0 00-.856.488 16.871 16.871 0 01-4.894-.978c.484-.12.984-.186 1.495-.186h8.512c.508 0 1.01.067 1.496.187a16.907 16.907 0 01-4.895.977m9.838-.616a8.659 8.659 0 00-6.439-2.88h-8.512a8.658 8.658 0 00-6.439 2.88H6.513s-4.18-.044-4.18-5.666V8.48c0-5.625 4.18-5.666 4.18-5.666h1.552a8.656 8.656 0 006.439 2.88h8.512c2.459 0 4.776-1.044 6.439-2.88h1.55s4.18.041 4.18 5.666v21.516c0 5.624-4.18 5.668-4.18 5.668zm8.064-5.168h47.456a48.025 48.025 0 01-4.376 1.886h-43.08zm51.525 1.886h-5.73c3.454-1.487 8.437-4.116 10.853-7.711v1.981c-2.212 1.355-4.368 4.543-5.123 5.73" fill="#221c1b"/>
</svg>
