<svg xmlns="http://www.w3.org/2000/svg" height="48" width="96">
    <path d="M20.795 3.519c-4.877-.268 1.409 1.221.668.043l-.05-.078zm4.096.539c4.7 1.642 9.652 4.026 12.824 8.256-4.793.003-10.065-1.031-13.27-4.924-6.203-1.522-14.288-3.102-18.341 3.072C-2.6 19.565.348 36.48 11.734 41.667c5.49.347 11.843.418 15.852-3.828 3.016-1.826 6.684-2.153 10.129-2.262-3.177 4.233-8.137 6.611-12.832 8.268 1.432.529 5.907-1.458 7.784-2.877 5.179-3.825 12.596-.704 18.698-1.713h38.143c1.417-3.952 7.103-5.322 5.492-10.07-.384-4.776.72-10.43-.46-14.735-3.452-1.897-4.154-7.584-9.032-5.814-16.898-.16-34.027.317-50.783-.232-2.433-2.098-7.505-4.83-9.834-4.346zM11.742 5.36c.756.395.173-.835 0 0zm.29 37.416c.484-.378-.96-.323 0 0zm9.054 1.076c-7.34.411 2.764.867 0 0z" fill="#fff"/>
</svg>
