<svg xmlns="http://www.w3.org/2000/svg" height="48" width="96">
    <path d="M20.56.927a.502.502 0 00-.275.65c.026.06.176.415.451.944-2.96.098-5.867.81-8.537 2.09 2.49-.294 6.388-.076 10.11.664.064 0 .112-.002.163-.003.196.264.408.532.633.804C6.124 2.11 1.708 10.681 1.708 10.681c1.49-1.53 3.23-2.62 5.07-3.384.56-.152 1.12-.277 1.677-.39C3.324 10.834 0 17.004 0 23.947c0 6.942 3.324 13.11 8.455 17.034a25.975 25.975 0 01-1.678-.39c-1.84-.76-3.578-1.852-5.069-3.383 0 0 4.416 8.573 21.397 4.605-.225.272-.437.54-.633.806a4.027 4.027 0 00-.163-.003c-3.722.74-7.62.956-10.11.663a21.377 21.377 0 008.537 2.09 13.4 13.4 0 00-.45.943.502.502 0 00.274.65.497.497 0 00.65-.273c.009-.017 4.018-7.632 9.24-9.066 1.55-.426 3.097-.856 4.76-.902-2.711 2.908-6.322 4.97-10.397 5.707-1.101 1.083-1.58 2.083-1.746 2.916a21.29 21.29 0 008.4-2.42l2.86-1.833c.356-.267.701-.547 1.038-.836h54.71l.266-.448c.767-1.287 3.18-4.824 5.131-5.742L96 33.82V14.071l-.528-.247c-1.95-.917-4.364-4.455-5.13-5.74l-.267-.449h-54.71a19.35 19.35 0 00-1.038-.836l-2.86-1.834a21.335 21.335 0 00-8.4-2.42c.166.835.645 1.834 1.746 2.916 4.075.738 7.686 2.8 10.398 5.708-1.664-.046-3.211-.477-4.762-.902C25.228 8.833 21.22 1.22 21.211 1.2a.499.499 0 00-.651-.273M37.264 38.42c.432-.468.843-.956 1.232-1.46 1.633.27 3.324.742 5.08 1.46zm56.903-5.73c-2.214 1.357-4.37 4.544-5.123 5.73h-5.732c3.455-1.485 8.439-4.116 10.855-7.71zM89.044 9.47c.753 1.186 2.91 4.374 5.123 5.73v1.98c-2.416-3.595-7.4-6.224-10.855-7.71zm-51.78 0h6.312a23.38 23.38 0 01-5.08 1.46c-.39-.505-.8-.992-1.232-1.46m8.74.002l.003-.003h34.59c3.202 1.192 11.607 4.748 13.568 9.85v9.254c-1.961 5.103-10.366 8.66-13.568 9.85h-34.59l-.003-.003c-2.377-1.172-4.661-1.948-6.85-2.364a21.242 21.242 0 003.778-12.11c0-4.496-1.4-8.662-3.779-12.11 2.19-.416 4.474-1.192 6.851-2.364m-20.727-1.18c1.311 1.136 2.898 2.18 4.808 2.906 1.887.716 3.894 1.027 6 .974a18.655 18.655 0 014.18 11.774c0 4.46-1.573 8.552-4.18 11.775-2.106-.053-4.113.256-6 .972-1.91.725-3.497 1.77-4.808 2.907a35.392 35.392 0 01-10.417 1.908C7.75 38.825 2.667 31.981 2.667 23.945c0-8.037 5.084-14.88 12.193-17.56 3.548.108 7.06.751 10.417 1.906" fill="#231f20"/>
</svg>
