<svg xmlns="http://www.w3.org/2000/svg" height="84" width="72">
    <path d="M3.963 11.936c-.855-2.067-1.26-6.45-1.26-6.45l.03-.373.55-.17c1.29-.4 4.967-2.008 4.967-4.084V0h54.504v.859c0 2.076 3.676 3.684 4.964 4.084l.55.17.034.372s-.407 4.384-1.262 6.451l-.384-5.539c-1.422-.522-4.881-2.044-5.521-4.677H9.867c-.641 2.633-4.099 4.155-5.521 4.677zM2.036 69.628v.003c.074 0 .16.006.239.012.07-.976.143-2.082.21-3.292-.998-1.558-1.77-3.31-1.934-5.159-.203-2.299.568-4.428 2.267-6.339 0-.337-.006-.681-.008-1.022 0 0-1.21-22.574-2.319-26.178l-.144-.464.413-.254c.018-.012.982-.623 1.927-1.634 0 0 .995-.889 1.364-1.961.408-.877.612-1.875.364-2.948-.04-.095-.507-1.19-.979-2.597l-.222 2.5c.233.69.434 1.429.622 2.184-.264.536-.758 1.384-1.37 1.773-.262-1.265-.56-2.483-.938-3.57l-.062-.177 1.081-12.07c-.013 1.805 1.216 5.724 1.216 5.724.408 2.468 1.79 5.718 1.836 5.844.484 2.049-.223 3.812-1.184 5.156 1.444 8.121.039 37.094-.145 40.464-.668-.854-1.278-2.227-1.607-3.048.068-1.755.115-3.651.139-5.616-.787 1.29-1.131 2.67-1.003 4.121.145 1.676.88 3.295 1.836 4.741a19.217 19.217 0 00.53.759c.033.04.047.061.047.061v.003c2.104 2.82 4.832 4.815 5.038 4.963a33.684 33.684 0 013.056 1.849h.014l.222.156c.693.473 1.364.961 2.009 1.45l.16.113H6.978c-.108.696-.103 2.745 3.441 3.492 0 0 .508 1.772 5.765 3.006 5.258 1.234 1.082-5.236-.518-6.498l.016-.014-2.162-1.705h2.028c-.458-1.36-.697-2.575-.772-3.65-.72.983-2.258 2.46-4.565 1.577.524.148 2.668.461 4.597-3.582l.007.019c.385-3.207 2.208-4.663 2.208-4.663-1.892 3.72-1.455 7.023-.839 9.018.011.014.394.548 1.17.56a10.015 10.015 0 01-.735-3.714c0-7.493 8.472-13.589 18.883-13.589 10.412 0 18.882 6.096 18.882 13.59 0 1.287-.268 2.53-.734 3.713.774-.012 1.158-.546 1.17-.56.615-1.995 1.052-5.298-.84-9.018 0 0 1.824 1.456 2.208 4.663l.007-.019c1.927 4.043 4.073 3.73 4.599 3.582-2.307.884-3.847-.594-4.568-1.576-.074 1.074-.312 2.289-.771 3.649h2.027l-2.178 1.719c-1.597 1.262-5.773 7.732-.517 6.498 5.257-1.234 5.765-3.006 5.765-3.006 3.547-.747 3.551-2.796 3.443-3.492h-7.701l.156-.112c.648-.49 1.318-.978 2.013-1.451l.22-.156h.016a33.321 33.321 0 013.056-1.85c.204-.147 2.932-2.142 5.033-4.962v-.003s.019-.021.047-.061c.136-.184.27-.37.399-.561a9.55 9.55 0 00.136-.198c.953-1.446 1.688-3.065 1.836-4.741.125-1.45-.216-2.83-1.006-4.121.023 1.965.071 3.861.14 5.616-.33.821-.94 2.194-1.608 3.048-.182-3.37-1.588-32.343-.144-40.464-.96-1.344-1.666-3.107-1.184-5.156.044-.126 1.427-3.376 1.835-5.844 0 0 1.23-3.919 1.216-5.724l1.083 12.07-.062.176c-.377 1.088-.677 2.306-.938 3.571-.614-.39-1.106-1.237-1.371-1.773.188-.755.39-1.494.623-2.184l-.226-2.5a36.784 36.784 0 01-.976 2.597c-.25 1.073-.044 2.07.364 2.948.37 1.072 1.363 1.961 1.363 1.961a10.975 10.975 0 001.93 1.634l.411.254-.144.464c-1.109 3.604-2.32 26.178-2.32 26.178 0 .341-.005.685-.005 1.022 1.697 1.911 2.467 4.04 2.264 6.339-.164 1.85-.935 3.601-1.933 5.159.068 1.21.14 2.316.208 3.292.081-.006.168-.012.242-.012l-.002-.003c1.305-.105 2.449.617 1.893 1.53-.553.913-1.5 1.013-1.5 1.013s.356-.23.652-.752c.148-.262.033-.384-.119-.442-.112-.018-.218-.037-.336-.049h-.002a7.472 7.472 0 00-.734-.024c.156 2.027.282 3.253.288 3.32l.103.95h-3.423c-1.594 6.083-12.697 8.087-12.697 8.087-2.035-1.796-4.296-1.258-4.296-1.258 1.808-.962 2.261-3.052 2.261-3.052l-2.509.596c-1.073.268-2.501.848-3.35 2.126l-6.918.791.057-.023c-.928.1-1.87.17-2.834.17-.966 0-1.907-.07-2.835-.17l.056.023-6.916-.79c-.86-1.291-2.308-1.873-3.383-2.137v.01l-2.508-.596s.451 2.09 2.26 3.052c0 0-2.262-.538-4.296 1.258 0 0-11.102-2.004-12.698-8.086H1.794l.1-.951c.008-.067.134-1.293.29-3.32a7.5 7.5 0 00-.736.024h-.002c-.118.012-.226.03-.335.05-.152.057-.268.18-.12.44.295.523.653.753.653.753S.7 72.07.143 71.159c-.553-.914.588-1.636 1.893-1.531m65.266-26.597c.47-4.962 1.098-12.45 1.886-15.3a12.279 12.279 0 01-1.12-.914c-.686 4.648-.81 12.29-.766 16.214m-1.883 27.076a11.41 11.41 0 011.579-.304c-.03-.407-.062-.846-.09-1.299a25.778 25.778 0 01-1.489 1.603m-4.399 3.349h6.283c-.056-.581-.13-1.41-.21-2.424-1.88.225-4.002 1.179-6.073 2.424m-8.705 1.719c-.677.956-1.5 1.845-2.459 2.654 1.784.056 3.238-1.592 3.983-2.654zM18.496 69.02c0 1.571.456 3.066 1.275 4.438a9.5 9.5 0 00.544.801l.06.09c.213.28.443.557.684.825 3.003 3.329 8.345 5.56 14.443 5.56 6.097 0 11.44-2.231 14.441-5.56.244-.268.472-.544.684-.824.024-.031.041-.062.063-.091.194-.263.377-.528.541-.801.817-1.371 1.276-2.867 1.276-4.438 0-6.457-7.628-11.712-17.005-11.712-9.378 0-17.006 5.255-17.006 11.712m2.655 8.81c-.961-.81-1.784-1.7-2.464-2.656h-1.555c.75 1.068 2.218 2.733 4.019 2.656M4.004 69.803c.516.064 1.042.158 1.582.304a24.996 24.996 0 01-1.491-1.603c-.028.453-.059.892-.09 1.299M3.7 73.456h6.282c-2.07-1.245-4.194-2.199-6.071-2.424a176.954 176.954 0 01-.21 2.424m.002-30.425c.044-3.924-.083-11.566-.768-16.214-.439.403-.839.712-1.12.914.787 2.85 1.413 10.338 1.888 15.3" fill="#231f20"/>
</svg>
