<svg xmlns="http://www.w3.org/2000/svg" height="84" width="72">
    <path d="M52.316 75.176h1.986c-1.53 1.27-1.864 2.784-1.864 2.784.546.047 1.484.525 1.484.525-.782-1.824 1.384-3.309 1.384-3.309l2.177-1.721h-2.028c.46-1.359.697-2.574.773-3.646.72.982 2.258 2.459 4.564 1.574-.522.15-2.67.462-4.597-3.582l-.007.02c-.385-3.206-2.208-4.662-2.208-4.662 1.892 3.72 1.456 7.022.84 9.017-.012.016-.396.547-1.17.56.469-1.183.734-2.424.734-3.713 0-7.492-8.472-13.59-18.881-13.59-10.413 0-18.883 6.098-18.883 13.59 0 1.289.267 2.53.732 3.713a1.502 1.502 0 01-1.168-.56c-.616-1.995-1.053-5.297.84-9.017 0 0-1.825 1.456-2.21 4.662l-.006-.02c-1.928 4.044-4.073 3.732-4.597 3.582 2.305.885 3.845-.592 4.567-1.574.074 1.072.312 2.287.772 3.646h-2.03l2.162 1.708-.015.013s2.165 1.485 1.384 3.31c0 0 .937-.48 1.484-.526 0 0-.335-1.513-1.864-2.784h2.016a14.487 14.487 0 002.733 2.868c-5.093.51-7.812 3.257-7.812 3.257 4.536-1.25 6.57 0 6.57 0-.208-1.041-1.356-1.25-1.356-1.25.104-1.459 3.602-.503 3.602-.503l.006-.008c1.073.265 2.52.844 3.376 2.133l6.917.792-.055-.024c.927.102 1.868.171 2.835.171.964 0 1.907-.07 2.835-.17l-.058.023 6.918-.792c.848-1.277 2.277-1.857 3.35-2.125 0 0 3.499-.956 3.603.503 0 0-1.148.209-1.357 1.25 0 0 2.034-1.25 6.569 0 0 0-2.705-2.737-7.783-3.254a14.48 14.48 0 002.736-2.871m-31.256 0a14.51 14.51 0 01-.685-.824l-.061-.092a9.002 9.002 0 01-.542-.803c-.817-1.369-1.276-2.865-1.276-4.434 0-6.459 7.63-11.714 17.007-11.714 9.376 0 17.005 5.255 17.005 11.714 0 1.569-.458 3.068-1.274 4.437a10.05 10.05 0 01-.543.8c-.021.03-.04.06-.064.092-.212.28-.441.555-.683.824-3.001 3.33-8.345 5.559-14.441 5.559-6.099 0-11.44-2.23-14.443-5.559m44.344-55.173c-.482 2.05.224 3.812 1.184 5.157-1.444 8.121-.037 37.096.146 40.461.668-.85 1.277-2.224 1.606-3.045-.068-1.755-.116-3.65-.14-5.616.788 1.292 1.132 2.67 1.006 4.12-.147 1.677-.882 3.296-1.836 4.741-.048.074-.091.135-.135.199a20.92 20.92 0 01-.445.624v.001c-2.103 2.82-4.831 4.815-5.036 4.963a34.127 34.127 0 00-3.055 1.847h-.016l-.221.158a53.24 53.24 0 00-2.011 1.45l-.157.113h.008s-.88.639-.996 1.713c0 0 .74-1.214 2.726-1.713h2.654c-3.063 1.841-4.48 4.273-4.48 4.273.898.392 1.576 1.383 1.576 1.383-.6-1.957 1.06-3.515 2.78-4.56.152-.068 2.688-1.21 4.832-1.096h3.817l-.103-.953c-.005-.066-.133-1.291-.29-3.318.246-.002.494.003.738.023h.002c.117.01.225.032.334.05.15.06.268.18.119.443-.293.522-.652.751-.652.751s.947-.1 1.5-1.012c.556-.913-.587-1.637-1.892-1.53v.002c-.072 0-.16.008-.24.012a223.21 223.21 0 01-.21-3.293c1-1.556 1.771-3.308 1.935-5.156.203-2.302-.566-4.431-2.265-6.34 0-.338.004-.682.007-1.023 0 0 1.209-22.573 2.317-26.18l.147-.46-.415-.256a10.97 10.97 0 01-1.927-1.632s-.994-.89-1.364-1.964c-.408-.877-.613-1.872-.364-2.947.042-.094.506-1.189.978-2.597l.224 2.5a27.56 27.56 0 00-.622 2.183c.263.537.756 1.386 1.37 1.774.262-1.265.56-2.484.938-3.57l.062-.176-1.083-12.071c.015 1.805-1.215 5.724-1.215 5.724-.406 2.467-1.79 5.719-1.836 5.843m1.503 48.502c.03.452.061.891.092 1.3-.517.062-1.041.156-1.58.303.485-.477.99-1.019 1.488-1.603m-5.885 4.95c2.069-1.243 4.192-2.196 6.07-2.42.082 1.013.155 1.841.21 2.42zm7.046-46.636c.439.402.839.713 1.12.913-.786 2.85-1.414 10.337-1.886 15.301-.044-3.925.08-11.565.766-16.214M3.963 11.937c-.855-2.066-1.26-6.45-1.26-6.45l.03-.374.551-.169c1.29-.401 4.964-2.01 4.964-4.083V0h54.506v.861c0 2.074 3.676 3.682 4.966 4.083l.55.17.032.373s-.406 4.384-1.262 6.45L66.656 6.4c-1.422-.523-4.88-2.043-5.52-4.678H9.866C9.229 4.356 5.77 5.876 4.347 6.4zM.143 71.16a2.17 2.17 0 001.501 1.012s-.357-.23-.652-.75c-.148-.265-.033-.385.12-.443.11-.019.218-.04.335-.051h.003c.24-.02.49-.025.733-.023a140.644 140.644 0 01-.288 3.318l-.103.953h6.44c1.934.803 5.83 2.81 4.959 5.656 0 0 .677-.99 1.576-1.383 0 0-1.419-2.432-4.481-4.273h2.653c1.987.499 2.728 1.713 2.728 1.713-.117-1.074-.999-1.713-.999-1.713h.042l-.156-.113a51.356 51.356 0 00-2.014-1.45l-.218-.158h-.016a33.795 33.795 0 00-3.058-1.847c-.205-.148-2.932-2.143-5.033-4.963v-.001l-.047-.063a18.54 18.54 0 01-.398-.561c-.044-.064-.09-.125-.135-.199-.955-1.445-1.69-3.064-1.837-4.741-.127-1.45.218-2.828 1.005-4.12a213.712 213.712 0 01-.139 5.616c.33.821.938 2.195 1.608 3.045.183-3.365 1.588-32.34.143-40.461.961-1.345 1.667-3.107 1.183-5.157-.044-.124-1.427-3.376-1.835-5.843 0 0-1.23-3.919-1.215-5.724l-1.082 12.07.06.177c.38 1.086.678 2.305.938 3.57.615-.388 1.107-1.237 1.374-1.774-.19-.756-.39-1.494-.626-2.183l.226-2.5c.47 1.408.936 2.503.977 2.597.25 1.075.044 2.07-.364 2.947-.37 1.073-1.364 1.964-1.364 1.964a10.896 10.896 0 01-1.928 1.632l-.412.256.144.46c1.11 3.607 2.319 26.18 2.319 26.18.002.341.006.685.006 1.023C1.12 56.764.348 58.893.551 61.195c.164 1.848.935 3.6 1.935 5.156-.068 1.212-.14 2.316-.208 3.293-.082-.004-.167-.012-.243-.012l.001-.003C.732 69.523-.41 70.247.143 71.16m3.952-2.655a25.778 25.778 0 001.49 1.603 10.823 10.823 0 00-1.58-.303c.03-.409.06-.848.09-1.3m-.184 2.53c1.879.224 4.001 1.177 6.072 2.42H3.702c.053-.579.128-1.407.209-2.42M1.816 27.732c.28-.2.682-.51 1.12-.913.686 4.649.81 12.289.766 16.214-.471-4.964-1.1-12.45-1.886-15.301" fill="#231f20"/>
</svg>
