<svg xmlns="http://www.w3.org/2000/svg" height="84" width="72">
    <path d="M65.406 20.005c-.484 2.051.221 3.812 1.181 5.156-1.444 8.12-.038 37.095.144 40.462.671-.851 1.279-2.227 1.608-3.044a208.316 208.316 0 01-.138-5.618c.788 1.292 1.13 2.67 1.004 4.122-.147 1.674-.882 3.293-1.836 4.74l-.135.2a25.456 25.456 0 01-.444.621v.003c-2.104 2.821-4.83 4.814-5.036 4.964a34.062 34.062 0 00-3.055 1.846h-.016l-.221.159c-.695.472-1.364.959-2.012 1.45l-.156.111h.008s-1.55 1.106-.525 2.282c0 0-.295-1.255 2.27-2.282H69.21l-.103-.953c-.006-.065-.132-1.29-.288-3.317.243-.003.494.002.735.022h.001c.118.011.227.031.336.05.152.058.267.181.119.444-.295.522-.652.749-.652.749s.948-.097 1.501-1.012c.555-.91-.588-1.635-1.892-1.53v.003c-.073 0-.16.008-.242.012-.068-.977-.14-2.081-.207-3.293.999-1.557 1.77-3.307 1.933-5.156.203-2.3-.568-4.43-2.264-6.339 0-.338.004-.682.007-1.026 0 0 1.208-22.571 2.317-26.178l.146-.461-.414-.253c-.02-.014-.981-.624-1.928-1.635 0 0-.993-.89-1.364-1.963-.408-.877-.613-1.87-.364-2.948.043-.094.507-1.188.978-2.597l.225 2.5c-.235.692-.435 1.43-.623 2.184.264.536.758 1.387 1.372 1.776.26-1.267.559-2.484.938-3.573l.06-.174-1.083-12.072c.015 1.803-1.213 5.724-1.213 5.724-.408 2.467-1.792 5.72-1.835 5.844m1.501 48.502c.03.452.062.892.091 1.301a10.73 10.73 0 00-1.579.301c.486-.478.99-1.02 1.488-1.602m-5.885 4.95c2.068-1.244 4.19-2.197 6.07-2.421.08 1.013.155 1.843.211 2.421zm7.047-46.637c.437.401.837.713 1.12.913-.787 2.851-1.416 10.339-1.887 15.3-.044-3.925.079-11.564.767-16.213M4.346 6.399c1.423-.52 4.88-2.043 5.521-4.678h51.27c.638 2.635 4.097 4.158 5.518 4.678l.386 5.538c.854-2.065 1.26-6.45 1.26-6.45l-.032-.371-.55-.172c-1.29-.4-4.965-2.008-4.965-4.083V0H8.25v.861c0 2.075-3.675 3.683-4.966 4.083l-.55.172-.03.37s.404 4.386 1.26 6.451zM.143 71.16a2.16 2.16 0 001.501 1.012s-.36-.226-.653-.75c-.147-.262-.032-.384.12-.443.11-.019.219-.039.336-.05h.001c.242-.02.491-.025.736-.022a124.392 124.392 0 01-.29 3.317l-.102.954h11.163c2.567 1.026 2.27 2.28 2.27 2.28 1.026-1.175-.525-2.28-.525-2.28h.01l-.156-.112a47.167 47.167 0 00-2.014-1.45l-.22-.158h-.014a34.292 34.292 0 00-3.058-1.847c-.205-.15-2.932-2.144-5.034-4.964v-.003s-.018-.021-.047-.061c-.136-.185-.27-.372-.397-.561l-.136-.2c-.954-1.446-1.69-3.064-1.836-4.74-.127-1.451.217-2.83 1.004-4.12a219.89 219.89 0 01-.138 5.616c.33.818.938 2.194 1.608 3.045.182-3.367 1.588-32.341.143-40.461.961-1.344 1.667-3.106 1.183-5.156-.044-.124-1.427-3.378-1.835-5.844 0 0-1.23-3.922-1.215-5.724L1.464 20.51l.063.173c.377 1.09.677 2.307.937 3.572.614-.388 1.107-1.239 1.374-1.775a28.519 28.519 0 00-.626-2.184l.226-2.5a36.88 36.88 0 00.977 2.598c.25 1.076.044 2.07-.364 2.948-.368 1.072-1.365 1.96-1.365 1.96C1.74 26.316.779 26.927.759 26.94l-.412.252.144.463C1.601 31.26 2.81 53.83 2.81 53.83c.002.344.006.688.006 1.025-1.698 1.91-2.469 4.04-2.265 6.339.164 1.85.935 3.6 1.933 5.157a207.39 207.39 0 01-.208 3.294c-.08-.006-.165-.014-.241-.014l.001-.001c-1.305-.107-2.446.617-1.893 1.53m3.952-2.654a25.722 25.722 0 001.49 1.603 10.823 10.823 0 00-1.58-.303c.03-.408.06-.848.09-1.3m-.184 2.53c1.879.223 4.001 1.177 6.07 2.42h-6.28c.054-.578.129-1.407.21-2.42M1.815 27.733c.28-.202.683-.512 1.12-.914.685 4.648.81 12.288.767 16.214-.474-4.962-1.1-12.451-1.887-15.3" fill="#231f20"/>
    <path d="M54.933 78.01c-.089-.073-1.368-1.17.371-2.833l2.177-1.72h-2.026c.458-1.358.697-2.573.772-3.646.721.98 2.258 2.458 4.566 1.574-.524.15-2.67.462-4.6-3.582l-.005.018c-.385-3.204-2.208-4.661-2.208-4.661 1.89 3.721 1.455 7.023.839 9.017-.012.015-.395.547-1.17.56.47-1.182.735-2.425.735-3.713 0-7.493-8.472-13.59-18.883-13.59-10.412 0-18.88 6.097-18.88 13.59 0 1.288.264 2.53.731 3.713a1.5 1.5 0 01-1.168-.56c-.615-1.994-1.053-5.296.839-9.017 0 0-1.824 1.457-2.21 4.661l-.005-.018c-1.93 4.044-4.072 3.732-4.599 3.582 2.308.884 3.847-.593 4.568-1.574.074 1.073.312 2.288.771 3.646h-2.03l2.178 1.72c1.743 1.663.464 2.76.376 2.834-2.136.906-5.123 1.488-8.379.006 0 0 1.303 1.928 3.284 2.452 0 0 3.114-1.134 4.746-.732 0 0 2.712-3.44 5.265-2.032.13.112.27.214.407.32.033.027.066.054.101.08-5.26.722-4.876 4.36-4.876 4.36.53-1.597 2.647-1.425 2.647-1.425.466-1.761 3.156-1.496 3.185-1.49.265.066.555.151.85.262.082.032.163.077.246.112.219.092.439.183.656.305.17.096.323.226.484.34.128.092.264.164.381.268.272.24.523.516.736.839l6.918.79-.055-.023c.005.002.008.002.013.002.424.047.851.09 1.284.112a21.528 21.528 0 003.07 0c.434-.022.861-.065 1.286-.112.006 0 .008 0 .014-.002l-.055.022 6.916-.79c.85-1.278 2.277-1.856 3.35-2.126 0 0 2.72-.281 3.191 1.49 0 0 2.114-.171 2.647 1.426 0 0 .383-3.638-4.876-4.36l.1-.08c.135-.106.279-.208.408-.32 2.553-1.408 5.265 2.032 5.265 2.032 1.631-.402 4.744.732 4.744.732 1.982-.524 3.284-2.452 3.284-2.452-3.256 1.482-6.24.9-8.376-.006m-19.432-20.7c9.378 0 17.007 5.256 17.007 11.713 0 1.57-.459 3.068-1.276 4.436-.164.275-.348.54-.541.8-.022.03-.043.063-.063.092-.215.281-.443.557-.684.825-1.107 1.227-2.532 2.302-4.195 3.17a18.5 18.5 0 01-1.767.815c-.049.02-.093.042-.14.057-.6.236-1.22.445-1.863.63-.038.01-.079.019-.116.03a22.705 22.705 0 01-2.279.5c-.479.085-.965.15-1.46.205-.192.019-.385.044-.579.063-.672.054-1.352.09-2.044.09-.693 0-1.373-.036-2.04-.09-.2-.02-.389-.044-.584-.063a23.74 23.74 0 01-1.46-.204 22.558 22.558 0 01-2.277-.501l-.117-.03a21.356 21.356 0 01-1.863-.63c-.047-.015-.092-.038-.141-.058a18.857 18.857 0 01-1.578-.716c-.062-.03-.125-.064-.19-.098-1.659-.868-3.086-1.943-4.192-3.17a12.72 12.72 0 01-.683-.825c-.023-.03-.041-.059-.063-.09a9.729 9.729 0 01-.54-.802c-.818-1.368-1.277-2.865-1.277-4.436 0-6.457 7.63-11.712 17.005-11.712M17.47 77.316c.063-.885-.325-1.655-.669-2.139h1.885c.207.287.424.564.655.838l-.019.012s-.688.622-1.852 1.289m36.063 0c-1.163-.667-1.852-1.29-1.852-1.29l-.016-.011c.23-.274.45-.551.65-.838h1.889c-.347.484-.734 1.254-.67 2.139" fill="#231f20"/>
</svg>
