<svg xmlns="http://www.w3.org/2000/svg" height="84" width="72">
    <path d="M1.012 27.294s2.974 15 2 28.667c0 0-4.167 4.167.333 10.916l-.373 7.296H68.03l-.374-7.296c4.5-6.75.333-10.916.333-10.916-.974-13.667 2-28.667 2-28.667l-1.916-1.416c.416-.75 1.464-5.372 1.464-5.372l-1.27-15.393C64.466 6.683 62.013.928 62.013.928H8.99S6.537 6.682 2.732 5.113L1.465 20.506s1.047 4.622 1.463 5.372z" fill="#fff"/>
    <path d="M35.501 58.037c8.975 0 16.278 4.926 16.278 10.984 0 6.057-7.303 10.986-16.278 10.986-8.974 0-16.277-4.929-16.277-10.986 0-6.058 7.303-10.984 16.277-10.984" fill="#fff"/>
    <path d="M35.501 78.34c-7.918 0-14.61-4.268-14.61-9.319 0-5.05 6.692-9.318 14.61-9.318 7.919 0 14.61 4.268 14.61 9.318 0 5.051-6.691 9.319-14.61 9.319m0 3.333c9.912 0 17.944-5.665 17.944-12.652 0-6.986-8.032-12.652-17.944-12.652-9.91 0-17.944 5.666-17.944 12.652 0 6.987 8.034 12.652 17.944 12.652" fill="#deddde"/>
</svg>
