<svg xmlns="http://www.w3.org/2000/svg" height="84" width="72">
    <path d="M1.012 27.297s2.975 15 2 28.667c0 0-4.166 4.166.334 10.916l-.374 7.296h65.06l-.374-7.296c4.5-6.75.333-10.916.333-10.916-.975-13.667 2-28.667 2-28.667l-1.916-1.416c.416-.75 1.464-5.372 1.464-5.372L68.27 5.116C64.467 6.685 62.013.93 62.013.93H8.992S6.538 6.685 2.733 5.116L1.466 20.509s1.046 4.621 1.462 5.372z" fill="#fff"/>
    <path d="M35.502 58.04c8.975 0 16.277 4.926 16.277 10.983 0 6.058-7.302 10.987-16.277 10.987-8.975 0-16.277-4.93-16.277-10.987S26.527 58.04 35.502 58.04" fill="#fff"/>
    <path d="M35.502 78.343c-7.92 0-14.61-4.267-14.61-9.32 0-5.05 6.69-9.318 14.61-9.318 7.92 0 14.61 4.268 14.61 9.319 0 5.052-6.69 9.319-14.61 9.319m0 3.333c9.912 0 17.944-5.665 17.944-12.652 0-6.987-8.032-12.652-17.944-12.652-9.91 0-17.944 5.665-17.944 12.652 0 6.987 8.033 12.652 17.944 12.652" fill="#deddde"/>
</svg>
