<svg xmlns="http://www.w3.org/2000/svg" height="84" width="72">
    <path d="M55.306 75.177l2.178-1.72h-2.03c.46-1.358.699-2.573.772-3.649.722.983 2.26 2.461 4.567 1.577-.524.15-2.67.462-4.597-3.582l-.007.018c-.385-3.205-2.21-4.661-2.21-4.661 1.894 3.721 1.457 7.023.84 9.017-.01.015-.394.547-1.169.56.467-1.182.734-2.425.734-3.713 0-7.495-8.472-13.59-18.883-13.59-10.41 0-18.883 6.095-18.883 13.59 0 1.288.268 2.53.736 3.713-.776-.013-1.158-.545-1.17-.56-.616-1.994-1.052-5.296.84-9.017 0 0-1.824 1.456-2.21 4.661l-.005-.018c-1.928 4.044-4.075 3.732-4.599 3.582 2.307.884 3.847-.594 4.567-1.577.075 1.076.313 2.29.772 3.65h-2.03l2.18 1.72h.003s2.39 1.635 1.859 4.86c0 0-.373 1.06.565 1.215.883.144 1.94-1.909-.925-6.076h1.487c.42.594.9 1.162 1.433 1.7l-.007.011s.034.048.079.123c3.05 4.536.51 5.27.501 5.273a.411.411 0 00-.222.608c.476.775 3.408.475 2.158-3.29 1.05.286 2.37.86 3.176 2.074l6.918.79-.056-.023c.926.1 1.869.17 2.833.17.967 0 1.908-.07 2.835-.17l-.056.022 6.917-.789c.808-1.215 2.13-1.79 3.181-2.076-1.252 3.767 1.68 4.07 2.158 3.292a.413.413 0 00-.223-.608c-.008-.003-2.548-.737.501-5.273l.078-.123-.007-.013a13.647 13.647 0 001.43-1.698h1.493c-2.868 4.167-1.81 6.22-.926 6.076.938-.154.563-1.214.563-1.214-.53-3.226 1.861-4.862 1.861-4.862m-19.805 5.56c-6.096 0-11.44-2.232-14.443-5.56a13.17 13.17 0 01-.682-.825c-.023-.03-.042-.061-.062-.09a9.196 9.196 0 01-.542-.802c-.82-1.37-1.276-2.867-1.276-4.436 0-6.457 7.629-11.712 17.005-11.712 9.377 0 17.005 5.255 17.005 11.712 0 1.57-.457 3.068-1.274 4.436-.164.275-.347.54-.542.801-.022.03-.04.062-.064.091-.212.281-.441.557-.681.825-3.003 3.328-8.345 5.56-14.444 5.56m29.904-60.732c-.484 2.05.223 3.812 1.184 5.156-1.445 8.12-.039 37.095.143 40.462.669-.851 1.278-2.227 1.609-3.044a208.045 208.045 0 01-.14-5.62c.787 1.294 1.132 2.672 1.005 4.124-.148 1.676-.882 3.293-1.837 4.74-.048.07-.09.134-.135.198-.13.19-.262.376-.398.562l-.047.062v.003c-2.103 2.82-4.83 4.813-5.033 4.961a33.388 33.388 0 00-3.058 1.848h-.016l-.218.159c-.367.25-.712.51-1.067.767l-.02-.006c-.403.256-.74.51-1.03.762l-.054.038h.007c-2.16 1.904-1.378 3.676-.76 3.883.704.235.938-.75.938-.75-.05-1.547 1.035-2.577 1.852-3.133h10.88l-.1-.953a131.25 131.25 0 01-.292-3.317c.246-.003.495.002.738.022.118.011.225.031.336.051.152.059.268.18.12.443-.294.521-.652.749-.652.749s.945-.097 1.5-1.012c.554-.91-.587-1.635-1.894-1.53l.003.003c-.076 0-.161.008-.244.014a272.83 272.83 0 01-.207-3.295c.999-1.557 1.77-3.308 1.932-5.156.206-2.301-.564-4.43-2.262-6.34 0-.337.002-.683.005-1.025 0 0 1.21-22.571 2.32-26.178l.145-.461-.414-.253c-.02-.012-.982-.623-1.927-1.635 0 0-.996-.89-1.365-1.963-.407-.877-.614-1.872-.363-2.948.04-.094.504-1.188.976-2.597l.225 2.5c-.234.692-.434 1.43-.622 2.185.264.535.757 1.387 1.37 1.775.262-1.267.56-2.484.939-3.573l.061-.174-1.084-12.073c.016 1.804-1.214 5.725-1.214 5.725-.407 2.467-1.791 5.719-1.835 5.844m1.504 48.502c.028.452.059.89.09 1.298-.518.063-1.042.159-1.58.304.485-.478.991-1.018 1.49-1.602m-5.888 4.95c2.07-1.245 4.192-2.197 6.072-2.421.08 1.013.155 1.841.21 2.421zm7.048-46.637c.436.401.839.712 1.119.912-.787 2.852-1.415 10.34-1.887 15.303-.044-3.927.083-11.566.768-16.215M3.964 11.937c-.856-2.065-1.262-6.45-1.262-6.45l.032-.371.55-.172c1.29-.4 4.966-2.008 4.966-4.083V0h54.504v.861c0 2.075 3.676 3.683 4.966 4.083l.55.172.03.37s-.406 4.386-1.26 6.451L66.658 6.4c-1.424-.522-4.88-2.043-5.521-4.678H9.868c-.642 2.635-4.1 4.156-5.522 4.678zM.144 71.16a2.157 2.157 0 001.5 1.012s-.36-.228-.652-.75c-.148-.262-.032-.383.12-.442.109-.02.218-.04.333-.05h.003c.242-.02.493-.026.736-.023a131.75 131.75 0 01-.29 3.317l-.101.953h10.884c.819.556 1.9 1.586 1.852 3.134 0 0 .235.984.939.749.618-.207 1.398-1.979-.762-3.883h.003l-.021-.013a8.307 8.307 0 00-1.06-.787l-.02.006c-.356-.256-.7-.516-1.067-.767l-.22-.159h-.016a33.368 33.368 0 00-3.056-1.848c-.204-.148-2.932-2.141-5.035-4.961v-.003s-.018-.022-.046-.062c-.136-.186-.27-.372-.4-.562l-.134-.198c-.954-1.447-1.69-3.064-1.836-4.74-.126-1.452.216-2.83 1.004-4.124-.024 1.968-.07 3.864-.138 5.62.329.817.938 2.193 1.608 3.044.18-3.367 1.588-32.342.144-40.462.96-1.344 1.665-3.106 1.184-5.156-.044-.125-1.43-3.377-1.838-5.844 0 0-1.228-3.921-1.213-5.725L1.466 20.509l.06.174c.379 1.089.678 2.306.94 3.573.614-.388 1.106-1.24 1.37-1.775a28.16 28.16 0 00-.622-2.185l.224-2.5c.47 1.41.936 2.503.978 2.597.249 1.076.044 2.071-.364 2.948-.37 1.074-1.364 1.963-1.364 1.963-.946 1.012-1.91 1.623-1.928 1.635l-.414.253.146.461C1.6 31.26 2.809 53.831 2.809 53.831c.003.342.007.688.007 1.025-1.698 1.91-2.467 4.039-2.263 6.34.164 1.848.935 3.599 1.932 5.156-.067 1.212-.14 2.316-.207 3.295-.082-.006-.168-.014-.244-.014l.003-.002c-1.305-.106-2.448.618-1.893 1.529m3.952-2.653a26.162 26.162 0 001.489 1.602 11.233 11.233 0 00-1.58-.304c.03-.408.06-.846.09-1.298m-.185 2.529c1.879.224 4.003 1.176 6.072 2.421H3.701c.055-.58.13-1.408.21-2.421M1.815 27.732c.28-.2.68-.51 1.12-.912.685 4.65.809 12.288.766 16.215-.472-4.963-1.098-12.451-1.886-15.303" fill="#231f20"/>
</svg>
