<svg xmlns="http://www.w3.org/2000/svg" height="84" width="72">
    <path d="M49.498 78.112c1.107-.881 2.06-1.867 2.817-2.935h2.99l2.178-1.72h-2.028c.46-1.358.7-2.573.772-3.648.722.983 2.258 2.46 4.567 1.576-.525.148-2.67.462-4.6-3.582l-.004.018c-.385-3.204-2.21-4.661-2.21-4.661 1.891 3.721 1.455 7.023.84 9.017-.013.015-.395.547-1.169.56.467-1.182.732-2.426.732-3.713 0-7.495-8.47-13.59-18.88-13.59-10.412 0-18.882 6.095-18.882 13.59 0 1.287.265 2.53.732 3.713a1.501 1.501 0 01-1.168-.56c-.616-1.994-1.052-5.296.84-9.017 0 0-1.827 1.457-2.21 4.661l-.006-.018c-1.928 4.044-4.074 3.73-4.598 3.582 2.308.884 3.846-.593 4.566-1.576.076 1.075.312 2.29.772 3.648H13.52l2.177 1.72h2.99c.758 1.066 1.703 2.046 2.805 2.926-.066.037-5.539 3.208-9.738.488 0 0 1.238 2.524 5.264 2.37l-.022.006c.058-.006.105-.003.162-.008.032 0 .063-.003.094-.006 4.622-.45 6.78 1.512 6.78 1.512-.675-1.586-1.994-2.15-3.062-2.338.464-.166.946-.355 1.454-.578l.005-.008c1.073.266 2.521.844 3.376 2.135l6.916.79-.055-.023c.927.1 1.868.17 2.835.17.967 0 1.908-.07 2.835-.17l-.055.022 6.915-.789c.85-1.279 2.277-1.857 3.35-2.127.508.223.99.412 1.454.578-1.068.188-2.386.752-3.063 2.338 0 0 2.159-1.962 6.783-1.512.03.003.061.006.092.006.057.005.104.002.161.008l-.02-.006c4.023.154 5.263-2.37 5.263-2.37-4.122 2.672-9.463-.33-9.719-.479M21.06 75.177c-.24-.268-.47-.544-.684-.825a5.51 5.51 0 01-.06-.092 9.274 9.274 0 01-.544-.8c-.817-1.372-1.276-2.867-1.276-4.436 0-6.457 7.631-11.713 17.007-11.713 9.376 0 17.007 5.256 17.007 11.713 0 1.57-.459 3.067-1.276 4.436-.164.275-.348.54-.542.8-.02.03-.04.063-.062.092-.215.281-.443.557-.684.825-3.003 3.33-8.346 5.56-14.443 5.56-6.097 0-11.44-2.23-14.443-5.56m44.348-55.172c-.485 2.051.222 3.812 1.182 5.156-1.446 8.12-.039 37.095.144 40.462.67-.851 1.278-2.227 1.606-3.044a213.964 213.964 0 01-.138-5.618c.786 1.291 1.133 2.67 1.004 4.122-.146 1.674-.882 3.293-1.836 4.74l-.134.2c-.13.188-.264.374-.398.561l-.047.06v.003c-2.103 2.821-4.83 4.814-5.035 4.964a34.292 34.292 0 00-3.057 1.846h-.015l-.22.159c-.694.47-1.366.959-2.012 1.45l-.156.111s-1.718 1.536-1.146 2.555c.573 1.016 4.014.781 5.71-1.408 0 0-1.694 1.537-3.546.677-.819-.381-.186-1.12.773-1.824h11.125l-.104-.953c-.005-.065-.133-1.29-.289-3.317.247-.003.495.002.737.022h.003c.117.011.224.031.333.05.152.058.268.181.122.442-.295.524-.654.751-.654.751s.946-.097 1.5-1.012c.555-.91-.588-1.635-1.892-1.53l.003.003c-.076 0-.163.007-.244.012-.07-.977-.14-2.081-.207-3.293 1-1.557 1.77-3.307 1.932-5.157.204-2.299-.566-4.428-2.262-6.338 0-.338.002-.682.004-1.026 0 0 1.212-22.571 2.321-26.178l.143-.461-.41-.253a11.016 11.016 0 01-1.932-1.635s-.994-.89-1.364-1.963c-.408-.877-.612-1.87-.362-2.948.042-.094.505-1.188.977-2.597l.225 2.5c-.236.692-.434 1.43-.624 2.184.266.536.758 1.387 1.372 1.775.262-1.266.56-2.483.938-3.572l.061-.174-1.083-12.072c.015 1.803-1.214 5.724-1.214 5.724-.408 2.467-1.79 5.72-1.834 5.844m1.502 48.502c.03.452.061.892.09 1.3-.517.06-1.04.157-1.58.302.486-.478.991-1.02 1.49-1.602m-5.887 4.95c2.068-1.244 4.192-2.197 6.07-2.421.082 1.013.157 1.843.211 2.421zM68.07 26.82c.437.401.838.712 1.12.913-.787 2.851-1.415 10.339-1.886 15.3-.045-3.925.08-11.564.766-16.213M3.965 11.937c-.858-2.065-1.263-6.45-1.263-6.45l.033-.371.55-.172c1.29-.4 4.964-2.008 4.964-4.083V0h54.505v.861c0 2.075 3.676 3.683 4.965 4.083l.55.172.033.37s-.405 4.386-1.261 6.451L66.657 6.4c-1.422-.52-4.88-2.043-5.52-4.678H9.867C9.227 4.356 5.77 5.88 4.347 6.4zM.143 71.16a2.157 2.157 0 001.502 1.012s-.359-.227-.654-.75c-.146-.262-.029-.385.122-.443.11-.019.217-.039.333-.05h.003c.242-.02.49-.025.737-.022-.157 2.028-.284 3.252-.29 3.317l-.102.953h11.091c.96.704 1.593 1.443.774 1.824-1.853.86-3.545-.677-3.545-.677 1.695 2.19 5.135 2.424 5.71 1.408.573-1.019-1.146-2.555-1.146-2.555h.031l-.156-.112a46.239 46.239 0 00-2.01-1.449l-.222-.159h-.016a34.083 34.083 0 00-3.056-1.846c-.204-.15-2.932-2.143-5.035-4.964v-.003s-.019-.021-.045-.06c-.138-.187-.27-.373-.4-.561l-.134-.2c-.954-1.447-1.69-3.066-1.836-4.74-.129-1.452.218-2.831 1.004-4.122-.024 1.966-.07 3.862-.138 5.618.328.817.937 2.193 1.606 3.044.183-3.367 1.588-32.342.144-40.462.96-1.344 1.666-3.105 1.184-5.156-.044-.124-1.428-3.377-1.836-5.844 0 0-1.23-3.921-1.214-5.724L1.467 20.51l.06.174c.38 1.089.676 2.306.94 3.572.612-.388 1.104-1.239 1.37-1.775a27.144 27.144 0 00-.624-2.184l.225-2.5c.472 1.41.937 2.503.977 2.597.25 1.078.046 2.071-.362 2.948-.37 1.074-1.364 1.963-1.364 1.963a10.962 10.962 0 01-1.93 1.635l-.412.253.143.461C1.6 31.26 2.81 53.831 2.81 53.831c.003.344.005.688.005 1.026C1.12 56.767.35 58.896.553 61.195c.162 1.85.934 3.6 1.932 5.157a225.817 225.817 0 01-.207 3.293c-.083-.005-.168-.012-.244-.012l.003-.002c-1.304-.106-2.448.618-1.894 1.529m3.954-2.653a26.128 26.128 0 001.488 1.602 10.84 10.84 0 00-1.579-.302c.028-.408.06-.848.09-1.3m-.183 2.529c1.877.224 4.001 1.177 6.07 2.421H3.7c.054-.578.13-1.408.212-2.421M1.815 27.733a12.15 12.15 0 001.12-.913c.686 4.65.811 12.288.767 16.213-.47-4.961-1.099-12.449-1.887-15.3" fill="#231f20"/>
</svg>
