<svg xmlns="http://www.w3.org/2000/svg" height="84" width="72" preserveAspectRatio="xMinYMin meet">
    <path d="M1.01 28.051s2.976 15 2 28.667c0 0-4.166 4.166.334 10.916l-.373 7.296h65.06l-.375-7.296c4.5-6.75.334-10.916.334-10.916-.975-13.667 2-28.667 2-28.667l-1.916-1.416c.416-.75 1.464-5.372 1.464-5.372L68.268 5.87c-3.804 1.57-6.257-4.186-6.257-4.186H8.99S6.538 7.439 2.732 5.87L1.464 21.263s1.047 4.621 1.463 5.372z" fill="#fff"/>
    <path d="M35.5 58.793c8.975 0 16.278 4.927 16.278 10.984 0 6.058-7.303 10.987-16.277 10.987-8.975 0-16.278-4.93-16.278-10.987s7.303-10.984 16.278-10.984" fill="#fff"/>
    <path d="M35.5 79.097c-7.918 0-14.61-4.268-14.61-9.32 0-5.05 6.692-9.318 14.61-9.318 7.92 0 14.611 4.268 14.611 9.319 0 5.05-6.692 9.319-14.61 9.319m0 3.333c9.912 0 17.944-5.665 17.944-12.652 0-6.987-8.032-12.652-17.944-12.652-9.911 0-17.944 5.665-17.944 12.652 0 6.987 8.033 12.652 17.944 12.652" fill="#deddde"/>
</svg>
