<svg xmlns="http://www.w3.org/2000/svg" height="84" width="72" preserveAspectRatio="xMinYMin meet">
    <path d="M3.961 12.694c-.854-2.068-1.26-6.452-1.26-6.452l.031-.372.55-.17c1.291-.4 4.967-2.01 4.967-4.084V.757h54.504v.859c0 2.074 3.675 3.684 4.966 4.084l.55.17.031.372s-.405 4.384-1.26 6.452l-.384-5.54c-1.423-.521-4.88-2.042-5.52-4.677H9.866c-.64 2.635-4.098 4.156-5.52 4.677zM2.036 70.387l-.001.003c.073 0 .161.005.241.01.07-.977.141-2.08.21-3.293-1-1.556-1.773-3.306-1.935-5.157-.202-2.299.568-4.428 2.265-6.339 0-.336-.004-.68-.007-1.022 0 0-1.209-22.572-2.32-26.179l-.142-.461.413-.255c.019-.012.981-.624 1.927-1.636 0 0 .994-.89 1.362-1.961.408-.876.615-1.872.366-2.947a37.182 37.182 0 01-.978-2.597l-.225 2.501c.235.69.435 1.427.623 2.181-.263.538-.758 1.387-1.37 1.775-.26-1.265-.56-2.483-.938-3.572l-.063-.173L2.547 9.192c-.014 1.804 1.216 5.725 1.216 5.725.406 2.467 1.79 5.719 1.834 5.843.484 2.05-.22 3.812-1.182 5.157 1.444 8.121.037 37.092-.144 40.461-.67-.85-1.279-2.226-1.608-3.045.068-1.755.116-3.652.14-5.617-.788 1.292-1.134 2.67-1.006 4.12.146 1.677.883 3.294 1.836 4.742l.135.199a23.583 23.583 0 00.444.621v.003c2.104 2.821 4.83 4.815 5.037 4.963a33.955 33.955 0 013.055 1.848h.016l.22.158c.693.471 1.365.959 2.012 1.45l.157.113H14.7a61.34 61.34 0 013.313 2.72 42 42 0 013.47.197c-1.1-.878-2.043-1.857-2.795-2.917h-2.991l-2.178-1.721h2.03c-.46-1.359-.698-2.574-.773-3.648-.721.981-2.26 2.461-4.565 1.576.522.149 2.67.462 4.597-3.583l.005.021c.386-3.208 2.21-4.664 2.21-4.664-1.894 3.722-1.455 7.024-.84 9.019.01.012.396.547 1.17.559-.469-1.183-.734-2.424-.734-3.714 0-7.494 8.472-13.588 18.881-13.588 10.412 0 18.883 6.094 18.883 13.588 0 1.29-.266 2.531-.734 3.714.775-.012 1.16-.547 1.17-.559.614-1.995 1.054-5.297-.839-9.019 0 0 1.824 1.456 2.208 4.664l.005-.021c1.928 4.045 4.075 3.732 4.6 3.583-2.306.885-3.846-.595-4.568-1.576-.073 1.074-.312 2.289-.772 3.648h2.03l-2.179 1.721h-2.99c-.753 1.06-1.695 2.039-2.794 2.917 1.053-.1 2.25-.184 3.47-.197a60.822 60.822 0 013.313-2.72h-.01l.156-.113a46.37 46.37 0 012.014-1.45l.22-.158h.016a33.77 33.77 0 013.054-1.848c.206-.148 2.932-2.142 5.036-4.963v-.003s.018-.021.047-.061c.136-.185.268-.37.397-.56l.135-.199c.955-1.448 1.69-3.065 1.836-4.742.128-1.45-.216-2.828-1.004-4.12.023 1.965.07 3.862.139 5.617-.33.819-.938 2.195-1.608 3.045-.183-3.369-1.588-32.34-.143-40.461-.961-1.345-1.667-3.107-1.183-5.157.043-.124 1.427-3.376 1.835-5.843 0 0 1.23-3.921 1.213-5.725l1.084 12.072-.06.173c-.38 1.09-.678 2.307-.938 3.572-.614-.388-1.108-1.237-1.372-1.775a27.63 27.63 0 01.622-2.181l-.225-2.501a36.784 36.784 0 01-.976 2.597c-.25 1.075-.044 2.07.364 2.947.37 1.072 1.363 1.961 1.363 1.961a11.015 11.015 0 001.928 1.636l.413.255-.144.461c-1.11 3.607-2.319 26.179-2.319 26.179-.002.342-.006.686-.006 1.022 1.696 1.911 2.466 4.04 2.264 6.339-.164 1.85-.935 3.601-1.934 5.157.067 1.212.14 2.316.207 3.294.083-.006.17-.011.244-.011l-.001-.003c1.304-.108 2.446.616 1.892 1.528-.554.915-1.502 1.014-1.502 1.014s.36-.228.654-.751c.146-.263.032-.384-.12-.444a4.152 4.152 0 00-.335-.048h-.003a7.924 7.924 0 00-.734-.023c.156 2.027.281 3.251.29 3.318l.1.953H58.413a57.481 57.481 0 00-3.536 2.756c3.79-.033 6.168 1.855 6.168 1.855l-2.413.957.001-.001c-1.165.493-3.012 1.196-4.686 1.526a.691.691 0 01.026.007c-.102.019-.19.032-.29.05-.074.013-.144.027-.215.037-8.464 1.465-9.348.658-9.348.658 3.641 0 5.937-2.374 5.937-2.374l.21-.212c.086-.084.542-.543 1.272-1.227a56.25 56.25 0 00-1.579.11h-.007c-.13.011-.253.025-.38.037-.254.029-.62.089-1.034.196a8.071 8.071 0 00-.89.282 6.39 6.39 0 00-.834.386c-.034.017-.063.041-.095.061a5.181 5.181 0 00-.868.643 4.104 4.104 0 00-.656.75l-6.916.79.055-.023a25.6 25.6 0 01-2.835.172 25.7 25.7 0 01-2.833-.172l.054.023-6.916-.79a4.096 4.096 0 00-.665-.756c-.063-.058-.128-.113-.193-.17a5.804 5.804 0 00-.692-.487c-.028-.015-.052-.033-.079-.048a6.715 6.715 0 00-.988-.44 8.378 8.378 0 00-.757-.232 8.844 8.844 0 00-1-.185l-.382-.038h-.006a55.452 55.452 0 00-1.579-.109c.73.684 1.185 1.143 1.27 1.227l.21.212s2.296 2.374 5.936 2.374c0 0-.883.807-9.345-.658-.072-.01-.143-.024-.215-.038-.101-.017-.19-.03-.29-.049l.025-.007c-1.676-.33-3.522-1.033-4.686-1.526l.002.001-2.414-.957s2.378-1.888 6.168-1.855a57.89 57.89 0 00-3.536-2.756H1.792l.101-.953c.008-.067.135-1.291.291-3.318a7.939 7.939 0 00-.736.023h-.003c-.118.01-.225.03-.334.048-.15.06-.268.181-.122.444.295.523.654.75.654.75s-.946-.098-1.499-1.013c-.556-.912.587-1.636 1.892-1.528m65.265-26.597c.471-4.963 1.1-12.45 1.887-15.301a12.142 12.142 0 01-1.12-.912c-.688 4.646-.81 12.286-.767 16.213M65.42 70.864a10.986 10.986 0 011.578-.303c-.029-.407-.06-.848-.09-1.3a25.373 25.373 0 01-1.488 1.603m-4.398 3.348h6.282a139.28 139.28 0 01-.21-2.422c-1.88.226-4 1.179-6.072 2.422m-9.577 7.577c.02.016.041.03.065.044.926.521 3.974-.392 6.406-1.39-1.15-.387-2.764-.527-4.45-.53a60.326 60.326 0 00-2.02 1.876M35.5 81.492c6.097 0 11.44-2.23 14.443-5.559.242-.27.47-.545.684-.825.022-.031.041-.063.064-.092.192-.262.376-.527.54-.802.817-1.369 1.276-2.866 1.276-4.436 0-6.457-7.63-11.713-17.007-11.713-9.376 0-17.005 5.256-17.005 11.713 0 1.57.458 3.067 1.276 4.436.164.275.346.54.542.804.02.03.04.059.063.09.213.28.441.556.681.825 3.003 3.33 8.347 5.559 14.443 5.559m-17.96-1.579c-1.687.003-3.302.143-4.45.53 2.431.998 5.476 1.911 6.403 1.39a.4.4 0 00.065-.044 59.915 59.915 0 00-2.018-1.876M4.003 70.561a11.02 11.02 0 011.581.303 25.378 25.378 0 01-1.49-1.603c-.029.452-.06.893-.091 1.3m-.303 3.65h6.281c-2.07-1.242-4.192-2.195-6.07-2.42a172.238 172.238 0 01-.21 2.42m0-30.422c.044-3.927-.08-11.567-.768-16.213-.437.4-.837.71-1.118.912C2.6 31.337 3.229 38.826 3.7 43.789" fill="#231f20"/>
</svg>
